/* XPM */
static char *_a01710ef64048bfe866faa56b01b625[] = {
/* columns rows colors chars-per-pixel */
"64 64 256 2 ",
"   c black",
".  c #0000A8",
"X  c #00A800",
"o  c #00A8A8",
"O  c #A80000",
"+  c #A800A8",
"@  c #A85400",
"#  c #4C4436",
"$  c gray33",
"%  c #5454FC",
"&  c #524A42",
"*  c #5E5246",
"=  c #736352",
"-  c #685D4C",
";  c #FCFC54",
":  c gray99",
">  c #ECECEC",
",  c gainsboro",
"<  c #D0D0D0",
"1  c #C0C0C0",
"2  c #B4B4B4",
"3  c gray66",
"4  c #989898",
"5  c gray55",
"6  c #7C7C7C",
"7  c gray44",
"8  c #646464",
"9  c gray33",
"0  c #484848",
"q  c gray22",
"w  c #2C2C2C",
"e  c #202020",
"r  c #FC0000",
"t  c #EC0000",
"y  c #E00000",
"u  c #D40000",
"i  c #C80000",
"p  c #BC0000",
"a  c #B00000",
"s  c #A40000",
"d  c #980000",
"f  c #880000",
"g  c #7C0000",
"h  c #700000",
"j  c #640000",
"k  c #580000",
"l  c #4C0000",
"z  c #400000",
"x  c #FCD8D8",
"c  c #FCB8B8",
"v  c #FC9C9C",
"b  c #FC7C7C",
"n  c #FC5C5C",
"m  c #FC4040",
"M  c #FC2020",
"N  c #FC0000",
"B  c #FCA85C",
"V  c #FC9840",
"C  c #FC8820",
"Z  c #FC7800",
"A  c #E46C00",
"S  c #CC6000",
"D  c #B45400",
"F  c #9C4C00",
"G  c #FCFCD8",
"H  c #FCFCB8",
"J  c #FCFC9C",
"K  c #FCFC7C",
"L  c #FCF85C",
"P  c #FCF440",
"I  c #FCF420",
"U  c #FCF400",
"Y  c #E4D800",
"T  c #CCC400",
"R  c #B4AC00",
"E  c #9C9C00",
"W  c #848400",
"Q  c #706C00",
"!  c #585400",
"~  c #404000",
"^  c #849C7B",
"/  c #738C6B",
"(  c #6B7B63",
")  c #637352",
"_  c #5A6B52",
"`  c #525A4A",
"'  c #4A5242",
"]  c #425239",
"[  c #394A39",
"{  c #313931",
"}  c #313929",
"|  c #293129",
" . c #293121",
".. c #212921",
"X. c #182118",
"o. c #181818",
"O. c #00FC00",
"+. c #00EC00",
"@. c #00E000",
"#. c #00D400",
"$. c #04C800",
"%. c #04BC00",
"&. c #04B000",
"*. c #04A400",
"=. c #049800",
"-. c #048800",
";. c #047C00",
":. c #047000",
">. c #046400",
",. c #045800",
"<. c #044C00",
"1. c #044000",
"2. c #C8BFB2",
"3. c #A89A85",
"4. c #9A8C77",
"5. c #7CFCF8",
"6. c #5CFCFC",
"7. c #40FCFC",
"8. c #20FCFC",
"9. c #00FCFC",
"0. c #00E4E4",
"q. c #00CCCC",
"w. c #00B4B4",
"e. c #009C9C",
"r. c #008484",
"t. c #007070",
"y. c #005858",
"u. c #004040",
"i. c #94846B",
"p. c #8C7B67",
"a. c #847B63",
"s. c #81735D",
"d. c #7B6B5A",
"f. c #007CCC",
"g. c #006CB4",
"h. c #005C9C",
"j. c #736B5A",
"k. c #736B52",
"l. c #9C9CFC",
"z. c #7C80FC",
"x. c #5C60FC",
"c. c #4040FC",
"v. c #2024FC",
"b. c #0004FC",
"n. c #0000FC",
"m. c #0000EC",
"M. c #0000E0",
"N. c #0000D4",
"B. c #0000C8",
"V. c #0000BC",
"C. c #0000B0",
"Z. c #0000A4",
"A. c #000098",
"S. c #000088",
"D. c #00007C",
"F. c #000070",
"G. c #000064",
"H. c #000058",
"J. c #00004C",
"K. c #000040",
"L. c #282828",
"P. c #FCE034",
"I. c #FCD424",
"U. c #FCCC18",
"Y. c #FCC008",
"T. c #FCB400",
"R. c #B420FC",
"E. c #A800FC",
"W. c #9800E4",
"Q. c #8000CC",
"!. c #7400B4",
"~. c #60009C",
"^. c #500084",
"/. c #440070",
"(. c #340058",
"). c #280040",
"_. c #FCD8FC",
"`. c #FCB8FC",
"'. c #FC9CFC",
"]. c #FC7CFC",
"[. c #FC5CFC",
"{. c #FC40FC",
"}. c #FC20FC",
"|. c #FC00FC",
" X c #E000E4",
".X c #C800CC",
"XX c #B400B4",
"oX c #9C009C",
"OX c #840084",
"+X c #6C0070",
"@X c #580058",
"#X c #400040",
"$X c #FCE8DC",
"%X c #FCE0D0",
"&X c #FCD8C4",
"*X c #FCD4BC",
"=X c #FCCCB0",
"-X c #FCC4A4",
";X c #FCBC9C",
":X c #FCB890",
">X c #FCB080",
",X c #FCA470",
"<X c #FC9C60",
"1X c #F0945C",
"2X c #E88C58",
"3X c #DC8854",
"4X c #D08050",
"5X c #C87C4C",
"6X c #BC7848",
"7X c #B47044",
"8X c #A86840",
"9X c #A0643C",
"0X c #9C6038",
"qX c #905C34",
"wX c #885830",
"eX c #80502C",
"rX c #744C28",
"tX c #6C4824",
"yX c #5C4020",
"uX c #543C1C",
"iX c #483818",
"pX c #403018",
"aX c #382C14",
"sX c #28200C",
"dX c #600064",
"fX c #006464",
"gX c #006060",
"hX c #00001C",
"jX c #00002C",
"kX c #302410",
"lX c #480048",
"zX c #500050",
"xX c #000034",
"cX c gray11",
"vX c #4C4C4C",
"bX c gray36",
"nX c gray25",
"mX c gray19",
"MX c #343434",
"NX c #2E2B22",
"BX c #B8E8E8",
"VX c #9CDCDC",
"CX c #74C8C8",
"ZX c #48C0C0",
"AX c #20B4B4",
"SX c #20B0B0",
"DX c #00A4A4",
"FX c #009898",
"GX c #008C8C",
"HX c #008484",
"JX c #007C7C",
"KX c #007878",
"LX c #007474",
"PX c #007070",
"IX c #006C6C",
"UX c #980088",
/* pixels */
"aXaXaXaXaXL.w mXw aXaXaXpXpXaXw w w w w w aXL.aXw w w mXw aXaXaXpXpXaXw w w w w L.L.L.w pXaXL.w aXL.L.L.L.aXL.aXL.w aXL.aXaXaXaX",
"aXaXaXpXaXL.w w w aXaXaXaXw w L.w mXw w w aXaXaXw w w w w aXaXaXaXw w L.w mXw aXaXw L.aXaXL.L.w w w L.L.L.L.L.aXL.w w aXaXaXaXaX",
"L.w aXpXaXaXw aXpXaXaXaXw w w w mXmXpXaXaXaXaXaXw MXw aXpXaXaXaXw w w w mXmXpXpXpXmXw aXaXL.L.aXw w w L.L.L.aXaXw aXw aXL.L.L.L.",
"L.w pXpXaXpXpXpXpXpXaXaXw w w aXw pXpXpXw aXaXaXw mXpXpXpXpXaXaXw w w aXw pXpXpXpXmXpXaXaXaXaXaXw w w L.L.L.aXL.L.aXw L.L.L.L.L.",
"w aXw w aXpXaXaXaXaXaXL.L.kXkXkXkXkXaXw L.kXkXkXe aXaXaXaXaXaXL.L.kXkXkXkXkXaXaXe e kXkXkXsXsXkXkXaXaXaXL.e e e e w L.L.L.L.L.L.",
"w w w w L.sXsXsXsXsXsXcXcXcXsXcXcXcXsXsXcXcXcXsXcXsXsXsXsXsXsXcXcXcXsXcXcXcXsXsXcXcXsXsXcXcXcXcXsXsXsXsXsXsXcXcXcXiXw L.w w w w ",
"w w aXaXaXe L.w mXw mXMXw w L.w mXq q mXq q mXq MXq q q nXnXnXq q q q nXnXnXMXq nXnXnXq nXnXnXq q q q 0 nXnXnXnXnXq mXw w w w w ",
"L.aXpXpXaXL.q q q q q nXq nXnXvX0 nX0 0 0 nXq nXq nX0 nXnXvX$ 0 nXnX0 vXvX0 nX0 0 nX0 nXnXnXnX0 nXnX0 0 0 0 nX0 0 uXmXw aXL.L.L.",
"L.aXpXpXaXMXmXq q nX0 0 nX0 nX0 vX$ 0 0 $ vXvX0 0 0 0 0 0 0 vX$ vXvX0 $ 0 0 nXnXnXq 0 0 q 0 nX0 nX0 vX$ $ vX0 0 vXpXw L.aXL.L.L.",
"aXpXpXpXaXw q nXq 0 $ vXvX$ $ $ bXbX$ $ bX8 $ bXvX$ $ $ bX$ bX$ bX$ $ vXvXvXvXnX0 0 vX0 nXvX$ 0 vX$ bXbX8 bXvXvX$ w L.L.aXaXL.L.",
"w pXpXpXaXmXq 0 0 vXvX0 vX$ bX8 8 8 bX8 7 7 8 8 $ $ bX8 bX$ bX$ bX$ $ $ bX$ $ $ $ bXvXvX$ $ $ nX$ bXbX8 7 bX$ vXvXaXL.aXaXL.L.L.",
"w pXpXpXaXw q nXnX$ $ vX$ 8 bXbXbX8 7 8 7 7 bX$ $ 8 8 bX8 bX$ $ $ bX$ $ $ bX8 bX8 bX$ vXbXbXvXvXbXbX$ 7 8 8 $ vX$ uXw L.L.L.L.L.",
"aXw w w e L.q nX0 bXbX$ $ 8 $ $ 8 bXbX8 bX8 8 bX8 7 7 8 8 8 $ bX$ $ $ bXbXbX8 8 $ vX0 0 $ bX$ $ $ $ $ bXbXbX$ $ bXuXpXL.L.L.aXaX",
"aXaXaXaXkXe q 0 vXbX$ vX$ bX$ $ 8 bXbX8 bX8 $ $ 8 8 8 bX$ bXbX8 $ $ $ $ $ $ bX$ $ nX0 vXbX8 bXvXbXbX8 $ $ $ $ 8 bXiXpXw w w aXaX",
"aXaXaXaXkXL.nXnX0 $ vXvX8 8 bX$ 8 8 8 7 bXbX0 $ 8 bX8 bX$ $ bX$ $ $ $ $ $ $ bXbX$ $ $ 8 8 bXbX$ $ bX$ $ 0 vX8 8 $ iXpXw w w aXw ",
"aXaXaXaXkXe nX0 $ $ $ bX8 8 bXbX8 7 7 7 bX$ bXbX7 8 7 8 vXbX$ $ $ bXbXbXbXbX8 $ $ $ 8 bXbX8 $ vXvX$ $ vX$ $ bX$ $ iXpXw w w aXw ",
"aXw w w L.e nXnXvX$ vXbXbX8 bX8 8 8 8 7 $ $ bX8 8 8 7 $ $ $ bXvX$ bX8 8 bXbX$ bX$ bXbXbXbX8 vXvX$ $ $ vX$ bXbX$ $ uXpXw aXaXw aX",
"aXaXmXpXw e nXnXvX$ bXbX$ $ bX8 8 bX7 8 $ 8 8 8 $ 7 7 bXvXbX8 $ 8 7 8 $ bX8 bX8 8 8 8 bXbXbX$ $ 8 $ $ $ $ 8 $ $ bXq w aXaXaXaXaX",
"aXpXpXpXaXe nX0 0 $ 0 $ $ 8 8 8 8 8 7 8 bX8 7 bXbX8 8 $ $ 7 bXbX8 8 bXbXbXbX8 8 7 8 bX$ bX$ $ 8 8 $ $ $ bXbX$ $ bXL.aXaXaXaXaXaX",
"aXpXpXpXkXe q vX0 $ $ $ bX8 bX8 bXbX8 bX0 $ bXbXbXbXbXbX8 8 8 8 $ bXbXbXbXbXbX8 bX8 $ $ $ vX$ 8 bX$ $ vX$ bXbX$ bXaXaXaXaXaXaXaX",
"aXaXaXaXkXe nX0 nX$ bXbXbXbX$ $ bX8 bXvX$ bXbX$ 8 bX$ bX8 8 bXbX$ bXbX$ 8 bXbX8 8 8 bX$ $ $ $ bX$ $ $ $ $ $ 8 8 8 pXaXaXaXaXaXaX",
"aXaXaXaXkXe q nX0 vXbXbX$ bX$ vX$ bX8 $ $ $ vX$ bX$ $ $ bX8 bXvX$ $ bX8 8 8 bX8 8 8 bX$ $ 0 $ $ vX$ $ $ $ 0 $ 8 8 uXpXaXw pXaXaX",
"w w aXaXkXe MXnXnX$ $ $ $ $ $ bX$ 8 8 bX$ $ 0 vXbXvXvXbX7 8 vX$ $ 8 8 8 7 8 8 8 8 $ bX$ $ vX$ bX0 0 vX$ $ 0 vX$ bXuXpXpXmXmXw w ",
"w w pXw kXe mX0 nX$ 8 $ $ bXbX$ bX8 8 bXbX$ $ $ bXvX0 $ bX8 $ vXbX8 8 bX8 bX8 8 $ $ $ $ $ $ $ 0 0 0 $ $ $ vXvX$ bXq mXpXpXpXw w ",
"pXw w w L.L.vX$ $ bX8 $ $ bX$ vX$ bX$ bX$ bX$ bXvXq MXnX0 $ $ $ $ vX$ bX$ $ $ $ 0 $ vX0 0 vX0 q nXvX$ vXvX0 0 0 nXq mXaXpXpXpXpX",
"pXaXw w L.L.w aXiXiXaXaXaXuXq q iXw w 0 q aXuXq uXuXuXuXiXuXq 0 q uXq q q uXiXq q uXuXpXaXL.q uXiXiXiXuXuXaXw pXuXiXpXpXpXpXpXpX",
"pXaXaXaXw pXpXaXaXpXaXaXaXpXpXpXpXw w mXaXaXaXw pXiXiXpXpXpXmXMXpXpXpXpXpXpXpXmXmXpXpXaXaXaXw pXpXpXpXpXw L.L.w pXpXpXpXpXpXpXpX",
"pXpXaXw w pXpXL.w aXaXaXw w aXw w w w w aXaXaXw pXpXpXpXpXaXaXw w w aXw pXpXpXaXpXpXaXaXaXaXaXw w w w L.L.aXL.L.w pXpXpXmXw aXaX",
"aXpXaXw w mXpXw pXaXaXaXw w w w mXmXpXaXaXaXaXaXmXMXpXpXpXaXaXL.w w w w mXpXpXpXpXmXw aXaXaXaXaXw w w L.L.aXaXaXw mXw w w aXaXaX",
"pXpXpXaXaXw pXpXpXpXaXaXw w w aXw pXpXpXw aXaXaXw mXpXpXpXpXaXaXw w w aXw pXpXpXpXmXpXaXaXaXaXaXw w w L.L.L.aXL.aXw w aXw w aXaX",
"pXpXpXaXaXaXpXpXpXpXaXw w pXaXaXaXpXpXmXw aXaXaXw pXpXpXpXpXaXw w pXaXaXaXpXpXpXw w aXaXaXaXaXw aXaXaXaXL.L.L.L.aXaXw w w w pXw ",
"pXpXpXpXaXaXpXpXpXpXaXw w w aXaXaXpXpXpXw aXaXaXw pXpXpXpXpXaXw w w aXaXaXpXpXpXw w aXaXaXaXaXaXw w aXaXL.L.L.L.aXaXpXw w w w w ",
"w w w w aXpXpXpXaXaXaXw w pXaXaXaXpXpXw w aXaXaXw aXpXpXaXaXaXw pXpXpXaXpXpXpXpXw w aXaXaXaXaXaXaXaXaXaXw w aXL.aXpXpXw L.aXw w ",
"aXaXaXaXpXpXaXaXaXaXaXw w aXaXaXaXaXaXw w aXL.L.L.aXaXaXaXaXaXw pXpXpXpXpXaXaXw w w aXaXpXpXaXw aXaXaXw pXpXpXaXpXpXaXaXaXaXaXaX",
"aXaXaXaXpXaXaXaXaXaXw aXaXaXaXL.L.L.L.L.w w L.L.L.aXaXL.aXaXaXw pXpXpXpXpXaXw w pXaXaXaXpXpXmXw aXaXaXw pXpXpXpXpXpXaXaXaXpXpXpX",
"aXaXaXaXaXaXaXaXaXaXaXw w aXaXL.L.L.L.L.w w L.L.L.aXaXL.aXaXaXw pXpXpXpXpXaXw w w aXaXaXpXpXpXw aXaXaXw pXpXpXpXpXpXaXpXpXpXpXpX",
"pXaXL.L.e cXkXkXsXsXkXkXaXaXaXL.e e e e L.L.e e cXsXkXe kXkXkXe aXaXaXaXaXaXL.L.kXkXkXkXkXaXw L.kXkXkXe aXaXaXaXaXq pXpXpXpXpXpX",
"pXaXaXaXkXcXcXcXcXcXcXcXcXcXcXcXcXcXcXcXcXcXe e cXe cXcXcXcXcXe L.cXe e L.L.L.L.e e e e e e e e e L.e L.w mXw MXL.iXiXpXpXpXpXpX",
"aXaXaXaXsXe L.w mXw mXMXw w L.w mXq q mXq q mXq MXq q q nXnXnXq q q q nXnXnXMXq nXnXnXq nXnXnXq q q q 0 nXnXnXnXnXuXiXpXMXmXpXpX",
"w L.L.L.cXcXq q q q q nXq nXnXvX0 nX0 0 0 nXq nXq nX0 nXnXvX$ 0 nXnX0 vXvX0 nX0 0 nX0 nXnXnXnX0 nXnX0 0 0 0 nX0 0 uXpXpXmXw w w ",
"aXL.L.L.e e mXq q nX0 0 nX0 nX0 vX$ 0 0 $ vXvX0 0 0 0 0 0 0 vX$ vXvX0 $ 0 0 nXnXnXq 0 0 q 0 nX0 nX0 vX$ $ vX0 0 vXq w w aXaXaXaX",
"aXL.L.L.e e q nXq 0 $ vXvX$ $ $ bXbX$ $ bX8 $ bXvX$ $ $ bX$ bX$ bX$ $ vXvXvXvXnX0 0 vX0 nXvX$ 0 vX$ bXbX8 bXvXvX$ uXaXaXaXaXaXaX",
"aXaXw w L.cXq 0 0 vXvX0 vX$ bX8 8 8 bX8 7 7 8 8 $ $ bX8 bX$ bX$ bX$ $ $ bX$ $ $ $ bXvXvX$ $ $ nX$ bXbX8 7 bX$ vXvXaXaXaXaXaXaXaX",
"w w w w L.cXq nXnX$ $ vX$ 8 bXbXbX8 7 8 7 7 bX$ $ 8 8 bX8 bX$ $ $ bX$ $ $ bX8 bX8 bX$ vXbXbXvXvXbXbX$ 7 8 8 $ vX$ q aXaXaXw w w ",
"w w L.L.e cXq nX0 bXbX$ $ 8 $ $ 8 bXbX8 bX8 8 bX8 7 7 8 8 8 $ bX$ $ $ bXbXbX8 8 $ vX0 0 $ bX$ $ $ $ $ bXbXbX$ $ bX0 mXw aXpXmXpX",
"pXaXL.L.e cXq 0 vXbX$ vX$ bX$ $ 8 bXbX8 bX8 $ $ 8 8 8 bX$ bXbX8 $ $ $ $ $ $ bX$ $ nX0 vXbX8 bXvXbXbX8 $ $ $ $ 8 bXw w w pXpXpXpX",
"pXaXL.L.e cXnXnX0 $ vXvX8 8 bX$ 8 8 8 7 bXbX0 $ 8 bX8 bX$ $ bX$ $ $ $ $ $ $ bXbX$ $ $ 8 8 bXbX$ $ bX$ $ 0 vX8 8 $ w w w mXpXpXpX",
"aXaXL.L.e cXnX0 $ $ $ bX8 8 bXbX8 7 7 7 bX$ bXbX7 8 7 8 vXbX$ $ $ bXbXbXbXbX8 $ $ $ 8 bXbX8 $ vXvX$ $ vX$ $ bX$ $ iXpXw mXw aXaX",
"aXaXL.L.L.cXnXnXvX$ vXbXbX8 bX8 8 8 8 7 $ $ bX8 8 8 7 $ $ $ bXvX$ bX8 8 bXbX$ bX$ bXbXbXbX8 vXvX$ $ $ vX$ bXbX$ $ q pXw w aXaXaX",
"aXaXaXaXaXcXnXnXvX$ bXbX$ $ bX8 8 bX7 8 $ 8 8 8 $ 7 7 bXvXbX8 $ 8 7 8 $ bX8 bX8 8 8 8 bXbXbX$ $ 8 $ $ $ $ 8 $ $ bXq pXaXw w aXaX",
"pXaXaXaXaXcXnX0 0 $ 0 $ $ 8 8 8 8 8 7 8 bX8 7 bXbX8 8 $ $ 7 bXbX8 8 bXbXbXbX8 8 7 8 bX$ bX$ $ 8 8 $ $ $ bXbX$ $ bXuXpXw w w pXw ",
"w w aXw aXcXq vX0 $ $ $ bX8 bX8 bXbX8 bX0 $ bXbXbXbXbXbX8 8 8 8 $ bXbXbXbXbXbX8 bX8 $ $ $ vX$ 8 bX$ $ vX$ bXbX$ bXaXaXw w w w w ",
"w w aXw kXcXnX0 nX$ bXbXbXbX$ $ bX8 bXvX$ bXbX$ 8 bX$ bX8 8 bXbX$ bXbX$ 8 bXbX8 8 8 bX$ $ $ $ bX$ $ $ $ $ $ 8 8 8 aXaXaXaXaXw w ",
"aXaXw aXkXcXq nX0 vXbXbX$ bX$ vX$ bX8 $ $ $ vX$ bX$ $ $ bX8 bXvX$ $ bX8 8 8 bX8 8 8 bX$ $ 0 $ $ vX$ $ $ $ 0 $ 8 8 aXaXaXaXaXaXaX",
"aXaXaXaXsXcXMXnXnX$ $ $ $ $ $ bX$ 8 8 bX$ $ 0 vXbXvXvXbX7 8 vX$ $ 8 8 8 7 8 8 8 8 $ bX$ $ vX$ bX0 0 vX$ $ 0 vX$ bXiXpXaXaXpXpXpX",
"aXaXaXaXsXcXmX0 nX$ 8 $ $ bXbX$ bX8 8 bXbX$ $ $ bXvX0 $ bX8 $ vXbX8 8 bX8 bX8 8 $ $ $ $ $ $ $ 0 0 0 $ $ $ vXvX$ bXiXaXw pXpXpXpX",
"pXaXaXaXkXcXvX$ $ bX8 $ $ bX$ vX$ bX$ bX$ bX$ bXvXq MXnX0 $ $ $ $ vX$ bX$ $ $ $ 0 $ vX0 0 vX0 q nXvX$ vXvX0 0 0 nXaXaXL.w pXpXpX",
"pXaXaXaXL.L.w aXiXiXaXaXaXuXq q iXw w 0 q aXuXq uXuXuXuXiXuXq 0 q uXq q q uXiXq q uXuXpXaXL.q uXiXiXiXuXuXaXw pXuXw aXaXmXpXpXpX",
"pXpXaXpXaXpXaXaXaXpXaXaXaXpXpXpXpXw w mXaXaXaXw pXiXiXpXpXpXmXMXpXpXpXpXpXpXpXmXmXpXpXaXaXaXw pXpXpXpXpXw L.L.w mXmXpXpXMXmXpXpX",
"w w w w aXL.aXL.w w aXaXaXL.aXw mXw w w aXaXaXw mXpXpXpXpXaXaXw w w aXw pXpXpXpXmXpXaXaXaXaXaXw w w L.L.L.aXL.L.w mXpXaXw w w w ",
"aXaXw w aXL.aXw w w L.aXaXL.w mXmXw w w aXaXaXw MXw aXpXaXaXaXw w w w mXmXpXpXpXmXw aXaXL.L.aXw w w L.L.L.aXaXw w mXw aXaXaXaXaX",
"aXaXpXaXaXaXL.L.L.L.aXaXaXaXL.w w L.L.L.aXaXaXw w w w w aXaXaXaXw w L.w mXw aXaXw L.aXaXL.L.w w w L.L.L.L.L.aXL.L.w L.aXaXaXaXaX",
"aXpXpXaXaXpXL.L.L.aXaXaXaXpXw w w aXL.L.aXaXaXw w w w w aXaXaXpXw aXw w pXw w L.L.L.w aXaXL.w aXL.aXL.L.L.aXaXL.L.L.L.pXaXaXaXaX",
"w pXpXaXaXpXL.L.w aXpXaXaXpXaXw pXaXaXL.aXaXaXw w w w L.L.aXL.w w pXaXw pXpXw L.L.w w w L.L.w aXw aXaXL.L.aXaXL.aXL.w pXw w w w "
};
