/* XPM */
static char *_883bf4df7aa4e6394548798d98f4c9c[] = {
/* columns rows colors chars-per-pixel */
"64 64 23 1 ",
"  c #181818",
". c gray11",
"X c #28200C",
"o c #302410",
"O c #382C14",
"+ c #202020",
"@ c #212921",
"# c #2E2B22",
"$ c #282828",
"% c #2C2C2C",
"& c #293129",
"* c #313929",
"= c gray19",
"- c #343434",
"; c gray22",
": c #403018",
"> c gray25",
", c #484848",
"< c #4C4C4C",
"1 c gray33",
"2 c gray36",
"3 c #646464",
"4 c gray44",
/* pixels */
",,,<,,<1<,>;;>;###X XXXXoOOOO::OoXXXXooXXXX   .$%=;>;;>,,,<12322",
",<<11<,11<>;;;-##X..Xooo#O:*-;,:#oooooooXXXX  .@#=;>;;>>,,<12221",
"111111<121,>;--#oXXXoO*==-,<,<<>-=#######oXXX  +#=;;;>>>>,<11211",
"112221<221<,>;-=#XXoO*;-;>,<111<>;;---;-%##oX  X##==;>,>>,111112",
"<122221121<<,;;=#Xoo#;;=->,,<11,>>>>>>>>-###oX  +#%=;>,>><111123",
"1111232111<<,>;#XXoo*;;-;>,>>,,>>>>,,,,>>;=##+  .+#-;>>>,<11<123",
"2221221<,,<<>>;#XXo#->,>>,,>>>;;;>,<<<,,>;;-##. Xo#=;>>;><<<,122",
"1111<<,>;;,<>;%#Xo#*;,,>>,,,>;;-;>,<,<<<,>>;-#+.Xo#%-;;;>,,,<<1<",
"<111,>>;-;>>;=@+oo#->,,,,<<,;;--;,,,,,<<,>,,;#oXXX##%---;>,,<<<,",
"<<<<,>;-;>>;-#+.o#->>>>,,11,;;;-;,,,,,,,>>,,;#+XXXo##%==;>>,<<,>",
",,>>>;-----=%+.Xo*>,,>>,121,>>;;;>>,,<<<>>,<>-#XX X++#%=-;;>,<,>",
";;;;;---=%###. X#;,<,,,<11<,,>>>>>,,<<11,>,<,;#X X .+@#%===>>>>;",
"--=======##oX Xo=,<<<<<122<,,,>>>,,,<<12<,,,>-#oXX ..+o##%%-;;;-",
"=%########oX..X#-,<<<112231,,,>>>,,>,<11<,,>>=#oXX    Xo####%%##",
"##++#o+++.XX XX#;,<<<1223321<,,>,,>>,1221<,>;-#oXX    XX++++@@@@",
"oX..XXX....  XX#;>,,,12223221<,,,,,<11221<,>;=##XX     .++++++++",
"OooooOoooooX  X#=;>,<11222221<,,,,1221221<<>-%##XX   XXooooo##oo",
"########oooX   X#->,122222221<>,,,122232<11,;%##X   XXooO#O#####",
";---===##ooXX  Xo*><133222221<,<1<1112321<<>-%#OX  XXo######===-",
";;;;;--=#ooXX  Xo*,<233232222<<11<<112211<,;-%#oX  XX##==%%---;>",
">>>>;;;=###XXX XX#;,2332321221111111221<,,>;;-#oXXXXo#=;;==---;>",
">>>;;;>-%##oXX XXo%>12112111122111222111,>>;;-#XXXXo#=;>>;;;;;;>",
">>>;->>-==%#oXXXXX#-,<<<<<11<11111232111,>>;;=oXXXoO*;>>>>>>;;;;",
">>>;->,;;;-#ooX   .#;>>,,<11,,<1<,<221<,>;;;-#XXXXo#-;,<<<<,,>>>",
",>>;;>>>;;;=#oX.  Xo%-;;><21<,,,>>,11<,>;--=#oXXXo#;;>,<<<111<,>",
"<,>;>>>>>>>;#ooX XXX####-><<<,,,>>,11,>;-;;=#XXXo#->,,,,<<1111<,",
"<,>>>,<,,>>>-##XX  XXooo#%;>,,>>>>,<<,>;---%oXXo#*;,<1<<<<1111<,",
"<<<<<11<<,,>;-#XX  XXXXoo#$-;;;;-;>>>>>;===#XXX#->>,<1<<<<<121<<",
"111111<,,,>>>;#oXX  XXXXoo##%#####=----=%%#+..o*;>,,<,,<<,,<1<,,",
"11<<1<,,,,>>>>-#oXXXXXXXXXo####@#@#####@@##. .#*;>>>>>>,,,,,<<,,",
"1<,<,>,<<,>>,>;%oXXXXX XX XXXoXXXXXXXX..XXX  X#-;;;;;;;>>>>><<<1",
"<<<,>>><<>>,,>-#oXXX       XXXX   XXXX  XX  .o#=-;;;;;;;;>>,,<11",
"1<<,,>,<,>>,>-##XXXXX XXX XXXXXXXXXXXXXXXXXXXo##%=-;;>>;;>,,<<<<",
"111<,,,<,,>>>=$+X. XXXXoXXoXXXXXoooooXXXXoooXXo##%=;>>>;>,,<<<11",
"111<,,<<11<,>;%$+. XXXoooOOoooooOOOOOooo##OoXXXo#=-;>>>;>,<<1111",
"<1<<<1112321<>;=$. XXXo##=**==%#**;*####**#OoXXX#=;;>>;;;><11122",
",,,<12113432<,>;$.XXoo#%==-;;;-=->,;*==;;-##oXXXo=;>>;;;;><11111",
">,<<<1112431,,>-+.Xoo##%==;;;;;;;;,;;;-;;;%##oXXo#;>>;;;>,<111<,",
"><1<>>,<1221,,>%+ Xo#=====-;;;>;;;;;;>;;;;=##ooXX#->>>;>,<1111,,",
">,,,>>,11221,>;%+XXo-;;----;;;,,;;;,,,,;-;;=#OoXXo=;>>;>,11111<,",
";>>>>>,11221,;=$+oo#;,;-;;;;;>,>>,,,,,>;;-;;=#ooXX#;>;-><11111<,",
";;;;>,,<<<<,>=$+Xo#-,,;-;>>>>>,,>,>>,,>>;;;;=##XXX#*;-=;,<<<<1<,",
">>;;>>,,>>>;;#++o#=,<,;-;>>>>>>>>,>>,,,>>,,;-#oXX X#---;>,,>,,,<",
";;;;>>>>;;-=%$+X#=;,<,;;>,,>>>>>>>>,<1<,,<,,;#oXX  +#=-;;>;;;>,,",
"%-;;;;-==-%$$+Xo#,,>>>>>>,,,>>,,>,,,<1<,,<,>;=#XXX .+#=-;;--;;>;",
"+#=-==%$%=#+++o#;<<>>>>>,<<,>,,,,,,,,<<,,,,;-=#oXXXXX##%=-==---%",
".+$%#$++$$+.++#*,<<,>,,,,11,>>,,,,,,,,,,,,;---=#XXX .X+@###$#$$@",
"...+#@++++. .o#*,<<,>>,,,<,,>>>,>>,,,,,,,,;---=#oXX   X.+++@@+++",
"oXXo#$+XXXX. Xo*,,>>>>>,,,,>;;>>>>>,,<<<<,,>;-=#oXXXXXXXooo##@##",
"OOoX+@#oXXXX Xo*>>>,>,<,,,,>;;>,>>>>,<<<1<,>;=%#oX XXXXoOOO#####",
"-*#++###oXXXXXX#-;,<<11<,,>>>>>,,>>>,<1<1<,>;-=#X  XXXXooO###%%%",
";-*&######oXXX.+%-><<11<<,>>>>>>>,>,,<<<1<,>;-##X  XXo####=--;;-",
";--=%%==###ooX .#=;><<1<<,>>>>>>>>><<,,<11,;-=#X  Xo##-;;=-;>,>>",
";;--%%==%###oX .o#=;,<1<<,>;;;;>;>><<,,11<>;=%@.  X#=-;;;--;,<,>",
";;;-=====###oXX X##=>111<,>>>;;>>;><<<11<,>;-%+. .#*;;;;;;;;><,,",
">>;-----=####oXXXo#%>1111<,,>;>>;;>,<111,>>;-#+  X#-;;-;;;;;>>,,",
",,>;;>>;=#####oXXXo*><<<<<,>;;>>>>>>>,11<>;-=$. Xo#-;--;;;;;>>,,",
"<,,>>,>;=%%==*OoXXo#->>>,,>>;;>>>>>>;,111,;-%@. X#=;;;;;;;;>>>,<",
"<,>;;>>;=%==-;*#XXXo#;>>>>>>;;>>;;;>>,11<,;=#+ X#=->>;;>>>>>>,<<",
"<,>;;>>-====-;-#oXXX#=;>>;>>;;;;;-;>>,<<,>=$+  X#;;>>;>>,,,,>,,<",
",,>;;>;-====;;-##XXXo#=;;;>>>;;;-===;>>>;%#+. .#*>>,>>>,<<,,>>,<",
",,,>>>>-===;>;-=#oXXXo##=-;>>;--%#o+####@+XX  .#;>,<<>>,<<,,,,,<",
",<<,,,>;=-;>>;;;*#oXXXXX+#%%##$#+XX ....      .#;,<<,>>,<,,,,<<<",
"<<<<<<,;;;><<;=-*#oX     .......             XX#-,,,>>>,,,>>,<<<"
};
