/* XPM */
static char *_71abb6f7689434d8304ef9187e4d298[] = {
/* columns rows colors chars-per-pixel */
"64 62 256 2 ",
"   c black",
".  c #0000A8",
"X  c #00A800",
"o  c #00A8A8",
"O  c #A80000",
"+  c #A800A8",
"@  c #A85400",
"#  c gray66",
"$  c gray33",
"%  c #5454FC",
"&  c #54FC54",
"*  c #54FCFC",
"=  c #FC5454",
"-  c #FC54FC",
";  c #FCFC54",
":  c gray99",
">  c #ECECEC",
",  c gainsboro",
"<  c #D0D0D0",
"1  c #C0C0C0",
"2  c #B4B4B4",
"3  c gray66",
"4  c #989898",
"5  c gray55",
"6  c #7C7C7C",
"7  c gray44",
"8  c #646464",
"9  c gray33",
"0  c #484848",
"q  c gray22",
"w  c #2C2C2C",
"e  c #202020",
"r  c #FC0000",
"t  c #EC0000",
"y  c #E00000",
"u  c #D40000",
"i  c #C80000",
"p  c #BC0000",
"a  c #B00000",
"s  c #A40000",
"d  c #980000",
"f  c #880000",
"g  c #7C0000",
"h  c #700000",
"j  c #640000",
"k  c #580000",
"l  c #4C0000",
"z  c #400000",
"x  c #FCD8D8",
"c  c #FCB8B8",
"v  c #FC9C9C",
"b  c #FC7C7C",
"n  c #FC5C5C",
"m  c #FC4040",
"M  c #FC2020",
"N  c #FC0000",
"B  c #FCA85C",
"V  c #FC9840",
"C  c #FC8820",
"Z  c #FC7800",
"A  c #E46C00",
"S  c #CC6000",
"D  c #B45400",
"F  c #9C4C00",
"G  c #FCFCD8",
"H  c #FCFCB8",
"J  c #FCFC9C",
"K  c #FCFC7C",
"L  c #FCF85C",
"P  c #FCF440",
"I  c #FCF420",
"U  c #FCF400",
"Y  c #E4D800",
"T  c #CCC400",
"R  c #B4AC00",
"E  c #9C9C00",
"W  c #848400",
"Q  c #706C00",
"!  c #585400",
"~  c #404000",
"^  c #D0FC5C",
"/  c #C4FC40",
"(  c #B4FC20",
")  c #A0FC00",
"_  c #90E400",
"`  c #80CC00",
"'  c #74B400",
"]  c #609C00",
"[  c #D8FCD8",
"{  c #BCFCB8",
"}  c #9CFC9C",
"|  c #80FC7C",
" . c #60FC5C",
".. c #40FC40",
"X. c #20FC20",
"o. c #00FC00",
"O. c #00FC00",
"+. c #00EC00",
"@. c #00E000",
"#. c #00D400",
"$. c #04C800",
"%. c #04BC00",
"&. c #04B000",
"*. c #04A400",
"=. c #049800",
"-. c #048800",
";. c #047C00",
":. c #047000",
">. c #046400",
",. c #045800",
"<. c #044C00",
"1. c #044000",
"2. c #D8FCFC",
"3. c #B8FCFC",
"4. c #9CFCFC",
"5. c #7CFCF8",
"6. c #5CFCFC",
"7. c #40FCFC",
"8. c #20FCFC",
"9. c #00FCFC",
"0. c #00E4E4",
"q. c #00CCCC",
"w. c #00B4B4",
"e. c #009C9C",
"r. c #008484",
"t. c #007070",
"y. c #005858",
"u. c #004040",
"i. c #5CBCFC",
"p. c #40B0FC",
"a. c #20A8FC",
"s. c #009CFC",
"d. c #008CE4",
"f. c #007CCC",
"g. c #006CB4",
"h. c #005C9C",
"j. c #D8D8FC",
"k. c #B8BCFC",
"l. c #9C9CFC",
"z. c #7C80FC",
"x. c #5C60FC",
"c. c #4040FC",
"v. c #2024FC",
"b. c #0004FC",
"n. c #0000FC",
"m. c #0000EC",
"M. c #0000E0",
"N. c #0000D4",
"B. c #0000C8",
"V. c #0000BC",
"C. c #0000B0",
"Z. c #0000A4",
"A. c #000098",
"S. c #000088",
"D. c #00007C",
"F. c #000070",
"G. c #000064",
"H. c #000058",
"J. c #00004C",
"K. c #000040",
"L. c #282828",
"P. c #FCE034",
"I. c #FCD424",
"U. c #FCCC18",
"Y. c #FCC008",
"T. c #FCB400",
"R. c #B420FC",
"E. c #A800FC",
"W. c #9800E4",
"Q. c #8000CC",
"!. c #7400B4",
"~. c #60009C",
"^. c #500084",
"/. c #440070",
"(. c #340058",
"). c #280040",
"_. c #FCD8FC",
"`. c #FCB8FC",
"'. c #FC9CFC",
"]. c #FC7CFC",
"[. c #FC5CFC",
"{. c #FC40FC",
"}. c #FC20FC",
"|. c #FC00FC",
" X c #E000E4",
".X c #C800CC",
"XX c #B400B4",
"oX c #9C009C",
"OX c #840084",
"+X c #6C0070",
"@X c #580058",
"#X c #400040",
"$X c #FCE8DC",
"%X c #FCE0D0",
"&X c #FCD8C4",
"*X c #FCD4BC",
"=X c #FCCCB0",
"-X c #FCC4A4",
";X c #FCBC9C",
":X c #FCB890",
">X c #FCB080",
",X c #FCA470",
"<X c #FC9C60",
"1X c #F0945C",
"2X c #E88C58",
"3X c #DC8854",
"4X c #D08050",
"5X c #C87C4C",
"6X c #BC7848",
"7X c #B47044",
"8X c #A86840",
"9X c #A0643C",
"0X c #9C6038",
"qX c #905C34",
"wX c #885830",
"eX c #80502C",
"rX c #744C28",
"tX c #6C4824",
"yX c #5C4020",
"uX c #543C1C",
"iX c #483818",
"pX c #403018",
"aX c #382C14",
"sX c #28200C",
"dX c #600064",
"fX c #006464",
"gX c #006060",
"hX c #00001C",
"jX c #00002C",
"kX c #302410",
"lX c #480048",
"zX c #500050",
"xX c #000034",
"cX c gray11",
"vX c #4C4C4C",
"bX c gray36",
"nX c gray25",
"mX c gray19",
"MX c #343434",
"NX c #D8F4F4",
"BX c #B8E8E8",
"VX c #9CDCDC",
"CX c #74C8C8",
"ZX c #48C0C0",
"AX c #20B4B4",
"SX c #20B0B0",
"DX c #00A4A4",
"FX c #009898",
"GX c #008C8C",
"HX c #008484",
"JX c #007C7C",
"KX c #007878",
"LX c #007474",
"PX c #007070",
"IX c #006C6C",
"UX c #980088",
/* pixels */
"mXvXvXnX7 0 0 0 nXMXnX0 0 0 0 7 bX7 8 6 5 $ 6 0 7 5 7 7 8 nXvXw   7 q $ nXMXMXq q nXq 0 vX0 q bX5 bX8 6 8 5 $ 0 7 8 nXvXnXnXq cX",
"L.7 $ 7 q 8 q bXmXnXbX0 0 6 $ 7 7 6 # 8 7 6 bX5 5 6 8 vXMX0 vXcXcX0 nXq 0 0 $ 0 q q nXnXvXnX0 0 $ 7 6 7 5 5 7 8 7 5 $ vXmXmXe L.",
"mX$ 6 8 8 vX0 6 7 7 5 6 6 7 6 5 4 5 7 7 7 7 7 8 7 $ $ bX$ nXq e   7 nX0 bX0 bXq $ $ 8 nX$ vXnX0 8 4 6 8 5 6 bXvX$ 7 nXq mXq 0 e ",
"mX$ 8 7 6 7 8 6 # 4 7 $ 5 5 6 6 6 5 6 bX7 $ 6 4 6 7 $ 7 q $ vXw cX6 5 7 7 8 8 nX6 7 $ vXq nXq q 7 6 7 bX6 $ bXnX$ bX7 mX0 e nXcX",
"q 7 8 5 4 nX7 7 5 6 bX6 2 5 8 7 7 5 8 8 bX4 7 6 6 8 vX7 0 0 $ L.cX7 8 4 4 $ 8 8 0 0 0 $ bXnXnX0 0 7 6 $ 6 6 bX$ 8 8 bX$ nX$ L.L.",
"bX6 0 6 6 8 vX4 7 0 $ 8 # 8 7 # 5 6 8 0 $ 7 5 7 vX4 6 vXvX0 nXe e 4 bXvX5 8 8 6 0 $ 6 6 4 7 7 0 8 7 7 8 0 7 nXnX7 8 q mXL.0 kXmX",
"0 vX5 8 bX0 bXvX4 6 8 5 2 7 7 7 $ bX$ 8 $ 7 0 7 nX5 8 bXMXq mXq cX8 6 7 7 4 0 # 8 8 8 bX4 0 mXvX$ bX0 0 bXnXnXe nXmX0 L.e q kXe ",
"mXbX8 $ $ $ bX7 8 6 4 $ 6 4 bXnXbX8 q 8 $ 0 mX$ 6 6 8 nXmXnXnXnXcX7 5 6 5 7 7 7 8 0 bX8 8 nXmXL.0 nXvX0 $ mXw e vXq q q nXnXcXe ",
"nXvX7 8 6 vX8 bX8 # # 8 0 7 bX$ vXbX7 nX0 bX$ $ 0 $ q 0 L.L.vXw L.4 5 bXvXnX0 8 $ 0 nXnXnXq MXMX$ nX5 bX8 8 nX0 $ q w L.e mXw e ",
"L.bXvX7 8 $ 8 5 6 nX0 vXbX6 vX7 6 $ 8 $ 0 0 q q 0 mXmXmXe mXL.cXcXbX6 nXnX0 $ $ 0 q 0 0 0 q vX0 0 nXbX6 nX8 e mXnXw q MXL.e w   ",
"w $ vXnXq 0 q mX$ $ L.0 0 8 $ vXmXbX8 vXq nXq 0 vX0 w mXmXnXe e cX5 bXmX0 nX8 bX7 q 0 nXL.0 w w 0 L.MXL.mXMXvX0 mXmXmXMX0 nX0   ",
"mXmX0 nXnXnX7 7 q w L.e q 0 mXmXnXmX$ mX0 nXmXnXmXmXmXq cXL.nXcXcX6 nXq nXnXnXMXmXq q e mXL.MXe mXq bXe $ q q q e L.mXcXe e cXcX",
"cXq q mXmXmX$ nX0 L.w vXq 0 w w q L.mXL.L.w $ 7 w q mXmXmXL.mXcX  0 vX$ MXe q mXL.L.e nXnXnX0 nXw 0 nXcXe 7 bXL.cXkXcXcXL.e cXcX",
"e nXL.L.q 0 nXnX5 nXnXq $ q L.nXL.L.mXq L.w w L.q vXMXe e w q L.  nX0 nXmXmXMXmXL.$ q L.MX8 mX0 nXnXmXe mXq mXnXmXcXe cXcX  cXcX",
"w q e cXcXe L.cXcX  cXe cXcXL.    cXe cXe cX0 e L.L.L.  e e L.w cXw kXmXcXe e e e w L.L.mXmXnXkXmXL.L.q L.e e kXcXcXL.  cXcXcXL.",
"1 1 5 5 5 4 6 6 2 # 2 # 5 4 # 5 e 5 6 6 5 5 5 7 6 5 6 # 6 6 5 6 5 7 7 6 2 4 4 7 6 7 8 6 4 bX2 7 e 4 # 7 nX4 6 5 6 7 7 bX4 5 5 4 ",
"7 5 4 1 8 5 # 4 6 1 1 4 5 8 4 L.cX# 0 bX7 $ 8 7 $ 5 6 7 6 7 # 6 8 7 0 bX5 7 8 bXnX8 nX$ nXL.q mXcX8 8 q vXnX0 7 0 7 0 5 4 8 8 8 ",
"6 5 # # 4 6 6 5 8 4 6 5 $ 5 8 L.  $ 8 5 7 4 8 6 6 5 6 6 5 7 < 4 4 6 8 7 4 4 4 bX7 bX0 mX0 cXL.MXL.7 8 7 5 5 7 5 8 4 6 5 4 4 5 8 ",
"6 4 # 4 7 6 2 7 6 4 7 6 7 7 bXmXcX5 6 7 2 5 5 4 # 5 # 2 7 5 2 # 4 8 5 6 4 2 5 5 5 8 7 5 nXq 8 nX0 7 8 5 0 6 8 8 # 4 # bX# 5 6 5 ",
"7 7 7 7 6 4 q bX8 7 6 8 8 vX6 mXe 6 7 7 7 7 2 4 6 6 4 8 6 6 5 bX8 $ # 7 6 5 6 7 6 5 bX0 MXbXMX0 L.5 4 6 7 # 1 # 8 6 2 $ $ 5 7 5 ",
"bX7 bX0 $ bX8 nX6 8 # 6 vX$ w q L.8 5 7 7 8 6 5 6 8 bX6 0 7 7 vX$ 8 bXvX8 7 7 # # $ 8 6 MXq w q L.1 6 5 4 7 7 8 7 7 8 7 0 5 4 $ ",
"$ 8 $ 0 0 bXvXvX0 0 0 vXnXq 0 cXcX8 $ 8 4 8 8 7 6 $ $ 8 0 8 7 7 $ 0 $ 7 $ 8 7 4 5 8 8 0 w q nX0 L.6 6 1 7 7 8 0 $ 8 6 7 8 6 5 5 ",
"8 0 vXq 8 0 0 $ L.nX$ MXMXnXq L.  8 7 5 8 bX6 6 bX7 $ q 8 8 8 q vX8 7 bX8 8 # 5 vX8 0 L.mXq $ e e # # 8 6 4 bXvX8 8 7 8 bX$ 6 8 ",
"8 8 $ MX0 $ 0 nX0 L.nXq 0 L.q cX  6 7 8 0 0 vX8 8 6 nX0 vX5 7 q nX$ 6 vXbX$ 7 8 0 7 L.e mXq e L.L.4 6 4 5 5 7 vX8 7 $ $ 7 8 nX8 ",
"7 7 q q nXvXvX0 nXe MXnXL.MXw cXcX7 8 8 0 mX0 nXMX8 8 nXq vX7 0 7 0 $ $ 0 5 $ 8 $ q 0 w cXcXcXe L.4 vX0 # bXvX8 # 0 4 5 8 4 q $ ",
"5 nX0 e vXbXL.q q cXq mXL.L.0 cX  vXnXnXq nXnX0 nXMXq nXnX0 vXq $ nXq nXbXbX6 vXmXw q MXcXe cXe   7 nX0 4 7 8 7 8 4 8 7 nXvXvX0 ",
"vXvXq 0 0 vX0 nXe mXq e q e q cXcXq mXnXnXL.0 q nX$ 0 mX0 0 nXvXvXnX0 L.w q MXmXnXq mXe mXe     e 7 q 0 5 8 6 vXnXq L.nXL.MXmXe ",
"0 nXq mX0 0 e cXe cXe cXmXL.w cXcX0 q 8 q nXq nX0 0 e mXmXnXmXe L.w e q e L.mXnX0 MX$ nXcXL.kXcX  8 q bXnXmXmXw e cXmXcXe e MXL.",
"nXe 0 MXMXMX    cXe mXmXmXw mXcX  0 nX0 e mXe mXL.q L.cXL.mXmXMXw nXe cXvXe nXe nXq MXq q cX    cX7 nXbXe nXcX  cXcXmXL.nXcXq 0 ",
"vXq q 0 MXw e e w nXe L.e mX0 kX  $ q L.8 L.e L.mXMXq L.0 q L.e mXe L.e w nXe L.mXmXw   cXq q cXcXw vXmXvXq 0 kXq vXq e e e q q ",
"nXe w w L.MXe cXcXkXe e w mXe L.  q cXcXcX    cXe cXcXL.      cX  cXe mXL.L.  e cX  cX  MXL.mX  cXw e e cXq cXL.  L.cXcXcX  cXcX",
"0 < # 4 # 1 4 7 7 4 6 # # # 4 # 4 2 4 # 4 7 6 0 8 6 6 6 7 8 $ e   5 6 # 5 # 4 # 7 5 5 4 5 4 8 2 5 4 5 5 # 6 2 4 8 4 5 8 8 bX7 0 ",
"q 4 6 $ 5 6 # 8 7 # 8 4 4 8 6 7 6 7 7 7 5 nXbX8 $ 0 nXnX0 L.L.cX  q vX6 4 5 6 # 2 6 6 5 7 8 8 $ 7 bX6 5 8 7 0 bX$ $ $ q q mXq e ",
"q 5 4 7 6 # 2 8 8 7 4 7 7 4 4 # 5 7 vX7 $ $ q 7 7 0 vXvXnX0 L.e   mX4 7 7 4 4 5 # 4 5 # 5 2 5 $ # 4 6 5 5 4 bX$ 6 5 6 6 0 nXmXcX",
"q 7 # 4 6 4 7 7 6 7 $ 8 $ 7 bX6 bX8 7 6 vX$ $ bX7 $ q vXnXL.mXcX  7 # 6 4 5 7 4 2 # # 4 6 # # 2 # 2 4 2 # 8 5 vX7 6 8 6 0 0 q cX",
"mX5 bX7 8 nX8 $ 8 8 7 8 bX1 7 7 q 0 8 $ $ $ nXnXbXnX0 0 q q mXcX  8 2 2 6 5 4 # 5 2 5 5 8 5 2 # 6 7 5 8 6 8 8 bX7 6 8 6 8 L.w   ",
"L.bXvX0 6 7 bX0 $ 0 0 6 7 7 8 vXnX$ 8 $ nX$ $ bX0 bXnX$ nXmXmX    8 5 6 2 6 5 1 7 1 5 8 vX7 6 6 8 8 7 $ bX7 bX8 $ vX$ 7 8 e e e ",
"w 8 $ 0 bX7 0 nXbXnX8 $ 7 7 8 8 8 7 7 $ 5 8 8 8 0 0 nXw L.nXe e   6 vX7 4 # 6 4 5 5 7 vXnX8 5 7 7 5 8 mXbXmX0 mX6 bX$ 7 nXL.e L.",
"L.vX0 $ bXbXmXvX0 bX7 4 8 0 bX0 $ 8 7 $ 6 vX7 bXmXmXq mX0 L.mXcXcX0 0 8 6 7 7 5 $ 8 $ 0 bXbXvX8 8 $ 0 $ $ 0 0 w bX0 7 0 L.nXL.w ",
"mX$ nXnXnX7 6 6 7 $ vX$ bX7 7 bX0 8 8 q 0 4 e 0 nX0 e e MXL.cXcX  8 $ 6 6 5 2 vX8 # q 7 7 0 $ $ 5 vXbXnX$ 8 7 L.vX6 nXmXMXe mXL.",
"cX0 q q $ $ bX7 7 vXvX8 8 bXvXnXvXvX$ 0 nX$ nXnXmXmXe q q   cXcXcX5 0 nX7 7 7 8 0 bXbXbX8 0 $ 5 8 8 $ $ nX$ 0 $ mX$ nXq mXL.0 cX",
"e 0 q w mXq nX$ 8 8 bXmX8 $ vXnXbX8 6 6 nXcXe mXmX0 mXq cXcXe cXcX7 $ 0 5 nX7 bXnXq 0 8 $ q q L.nXq nX0 nXnXq $ $ nXmXnXq w L.cX",
"cXvXmXe mXmXMXbX6 e nX$ nX$ vX$ q nXq nXmXe e mXe MXq mXmXL.q cX  0 bX0 vXMX$ vX0 mX8 L.nXnXMXw w q 0 q nXq e nX0 cXL.q mXmXcX  ",
"cXMXmXnX8 vXmXmXnXL.mXe 0 MXvXq $ nXL.q mXcXcXe L.cXe e cXmXe cXcX8 bX0 8 nXmXq q $ 0 q vXnXL.L.nXnXq kXq q mXnXmXe L.nXcXcXcXcX",
"e q L.nX$ w mXvXnXw w q mX0 nXq mXq e L.L.e   e e cXmXL.e e L.L.cXq q 0 vX$ L.L.MX$ e MXmXq cXcXnXL.cXMXMXq w 0 mXe L.mXe cXL.cX",
"cXmXmXnX0 e q 0 mXe MXe e L.mXcXMXmXe mXcXcX  L.L.e e L.cXcXmXe   $ nX$ mXmXcXcXe e cXcXcXe cXmXnXnXMXkXw mXcXcXmXMXkXcXcXL.L.  ",
"cXe e mXcXcXcXcXcXcXcX  cX  cXcX  cX                      e cXcX  e MXe cXe cXcXcXcXcXe   e mXcXcXcXkXcXcX        cXcX  cX  cXcX",
"2 # 5 4 6 6 5 4 6 5 6 8 0 7 0 vXL.7 5 5 6 7 6 5 4 7 2 6 # # 4 2 # 2 1 # # 6 4 2 1 4 2 7 5 4 $ 0 L.5 bX8 8 5 7 7 6 5 4 bX6 4 7 # ",
"7 8 5 8 5 $ 7 6 $ $ bXq nX0 L.w cX6 7 8 7 0 0 7 6 5 # 6 8 5 4 $ 7 # < 1 2 7 # 6 8 0 $ bX$ $ nXe   $ vXq vX8 6 7 $ vX6 8 0 7 7 7 ",
"6 7 $ 6 5 8 8 bX6 7 MX8 bXq 0 mXe 4 bX4 6 8 6 5 5 # 4 6 6 7 2 6 # 2 # 2 5 1 6 4 5 0 6 4 $ $ nXcXw 8 7 7 5 7 6 2 6 7 8 bX$ 5 7 5 ",
"5 5 7 2 4 nX5 $ 0 bX6 nXnX0 L.nXcX2 2 6 4 6 # 5 5 4 1 5 6 # # 5 4 4 2 2 2 2 4 6 7 # 4 0 bX$ q L.  7 0 # 5 7 # 7 6 bX6 5 # 4 6 6 ",
"7 6 8 # 7 $ 8 7 8 mX0 nXmXq e e e 2 # # 4 4 6 6 8 4 5 4 8 5 8 7 5 6 6 2 # 6 6 7 # 6 7 0 L.vXMX    bX# # 0 6 7 $ 5 8 0 0 7 5 8 5 ",
"4 7 8 # bX$ vX8 bXmXq q L.MXmXcXe # 8 5 # 7 5 # 5 4 # 6 6 5 4 6 2 6 4 1 6 6 # 2 7 8 $ cXe mXmX    8 7 5 6 8 q mX5 7 vX0 8 $ 8 6 ",
"bX7 6 6 $ bX0 $ 8 mXq $ q L.L.cXe 5 8 5 8 vX6 5 $ 6 6 7 7 nX7 6 6 4 5 6 5 $ 7 5 6 8 nXmXe mXw     8 6 $ 0 $ nX$ nX0 6 8 q $ 6 bX",
"5 7 7 5 8 vXbXnX6 mX$ nX0 mXe e cX2 7 7 $ 7 8 8 bX$ 6 6 7 vXq 8 6 8 7 7 6 6 0 $ nXq L.L.mXcXcXcX  6 5 0 vXbXq 6 0 8 vXbX0 4 6 8 ",
"8 bXbX5 5 0 0 bXvXmXmXnXbXq nXe   5 7 6 8 6 8 7 8 bX0 8 6 vX$ 0 7 8 $ 5 0 7 vX0 mXkXcXe cXcXcXcX  $ nX0 nXvXvXvX5 7 bXnX6 vX7 $ ",
"4 bXbX6 8 vXq nXL.q q 0 L.mXe cXcX6 6 vX7 $ q bX8 8 0 0 0 nXvX0 q 8 bX8 $ 0 8 6 mXcXL.cXcXcXcXw   8 0 bX8 $ 8 q vXbX0 vX6 $ 8 nX",
"7 0 0 8 bXvX0 0 mXmXL.w 0 w e cX  6 7 7 vX7 q 0 vX0 vXvXnXw $ q q $ 7 q q q q nXe L.e L.e mXcX    nX0 0 q 0 bXbX$ nXmXnX8 0 $ nX",
"0 nXmXnX0 L.mXq mXcXq   e q L.cXcX8 nX$ 8 q mXq mXmXnXnXcXmXe q 0 mXnXL.mXcXe cXe mXmXe e e cX    L.vXL.L.MXL.cX0 cXmXw L.nXmXL.",
"bXnXq mXnXL.mXmXe cXnXcXe mXmXcX  5 nXnXmXMXcXw e L.mXnXmXmXnXL.nXw mXe cXcXL.w e q e L.e cXcX    e e   L.mXe L.e q 0 mXL.nXL.L.",
"q nXmXmXcXcXMXcXcX  e cXcXL.e cX  vXq mXe cXe L.e q nXL.cXe L.L.L.L.cXe cXcXmXcXe e   cXcXw       mXcXq cXe L.e e q e q L.q e cX",
"L.e e L.e cXcXL.cX  cXcXmXq mX    $ mXL.q L.L.e 0 L.MXMXcXcXcXcXcXMX    cXq cXL.cXcXcXcXcXnXw   cX0 L.  cX  cXcXcXcXcXL.cXe e e "
};
