/* XPM */
static char *_5c7b9e5be974add8bb78ebb83abe387[] = {
/* columns rows colors chars-per-pixel */
"64 64 256 2 ",
"   c black",
".  c #0000A8",
"X  c #00A800",
"o  c #00A8A8",
"O  c #A80000",
"+  c #A800A8",
"@  c #A85400",
"#  c gray66",
"$  c gray33",
"%  c #5454FC",
"&  c #54FC54",
"*  c #54FCFC",
"=  c #FC5454",
"-  c #FC54FC",
";  c #FCFC54",
":  c gray99",
">  c #ECECEC",
",  c gainsboro",
"<  c #D0D0D0",
"1  c #C0C0C0",
"2  c #B4B4B4",
"3  c gray66",
"4  c #989898",
"5  c gray55",
"6  c #7C7C7C",
"7  c gray44",
"8  c #646464",
"9  c gray33",
"0  c #484848",
"q  c gray22",
"w  c #2C2C2C",
"e  c #202020",
"r  c #FC0000",
"t  c #EC0000",
"y  c #E00000",
"u  c #D40000",
"i  c #C80000",
"p  c #BC0000",
"a  c #B00000",
"s  c #A40000",
"d  c #980000",
"f  c #880000",
"g  c #7C0000",
"h  c #700000",
"j  c #640000",
"k  c #580000",
"l  c #4C0000",
"z  c #400000",
"x  c #FCD8D8",
"c  c #FCB8B8",
"v  c #FC9C9C",
"b  c #FC7C7C",
"n  c #FC5C5C",
"m  c #FC4040",
"M  c #FC2020",
"N  c #FC0000",
"B  c #FCA85C",
"V  c #FC9840",
"C  c #FC8820",
"Z  c #FC7800",
"A  c #E46C00",
"S  c #CC6000",
"D  c #B45400",
"F  c #9C4C00",
"G  c #FCFCD8",
"H  c #FCFCB8",
"J  c #FCFC9C",
"K  c #FCFC7C",
"L  c #FCF85C",
"P  c #FCF440",
"I  c #FCF420",
"U  c #FCF400",
"Y  c #E4D800",
"T  c #CCC400",
"R  c #B4AC00",
"E  c #9C9C00",
"W  c #848400",
"Q  c #706C00",
"!  c #585400",
"~  c #404000",
"^  c #D0FC5C",
"/  c #C4FC40",
"(  c #B4FC20",
")  c #A0FC00",
"_  c #90E400",
"`  c #80CC00",
"'  c #74B400",
"]  c #609C00",
"[  c #D8FCD8",
"{  c #BCFCB8",
"}  c #9CFC9C",
"|  c #80FC7C",
" . c #60FC5C",
".. c #40FC40",
"X. c #20FC20",
"o. c #00FC00",
"O. c #00FC00",
"+. c #00EC00",
"@. c #00E000",
"#. c #00D400",
"$. c #04C800",
"%. c #04BC00",
"&. c #04B000",
"*. c #04A400",
"=. c #049800",
"-. c #048800",
";. c #047C00",
":. c #047000",
">. c #046400",
",. c #045800",
"<. c #044C00",
"1. c #044000",
"2. c #D8FCFC",
"3. c #B8FCFC",
"4. c #9CFCFC",
"5. c #7CFCF8",
"6. c #5CFCFC",
"7. c #40FCFC",
"8. c #20FCFC",
"9. c #00FCFC",
"0. c #00E4E4",
"q. c #00CCCC",
"w. c #00B4B4",
"e. c #009C9C",
"r. c #008484",
"t. c #007070",
"y. c #005858",
"u. c #004040",
"i. c #5CBCFC",
"p. c #40B0FC",
"a. c #20A8FC",
"s. c #009CFC",
"d. c #008CE4",
"f. c #007CCC",
"g. c #006CB4",
"h. c #005C9C",
"j. c #D8D8FC",
"k. c #B8BCFC",
"l. c #9C9CFC",
"z. c #7C80FC",
"x. c #5C60FC",
"c. c #4040FC",
"v. c #2024FC",
"b. c #0004FC",
"n. c #0000FC",
"m. c #0000EC",
"M. c #0000E0",
"N. c #0000D4",
"B. c #0000C8",
"V. c #0000BC",
"C. c #0000B0",
"Z. c #0000A4",
"A. c #000098",
"S. c #000088",
"D. c #00007C",
"F. c #000070",
"G. c #000064",
"H. c #000058",
"J. c #00004C",
"K. c #000040",
"L. c #282828",
"P. c #FCE034",
"I. c #FCD424",
"U. c #FCCC18",
"Y. c #FCC008",
"T. c #FCB400",
"R. c #B420FC",
"E. c #A800FC",
"W. c #9800E4",
"Q. c #8000CC",
"!. c #7400B4",
"~. c #60009C",
"^. c #500084",
"/. c #440070",
"(. c #340058",
"). c #280040",
"_. c #FCD8FC",
"`. c #FCB8FC",
"'. c #FC9CFC",
"]. c #FC7CFC",
"[. c #FC5CFC",
"{. c #FC40FC",
"}. c #FC20FC",
"|. c #FC00FC",
" X c #E000E4",
".X c #C800CC",
"XX c #B400B4",
"oX c #9C009C",
"OX c #840084",
"+X c #6C0070",
"@X c #580058",
"#X c #400040",
"$X c #FCE8DC",
"%X c #FCE0D0",
"&X c #FCD8C4",
"*X c #FCD4BC",
"=X c #FCCCB0",
"-X c #FCC4A4",
";X c #FCBC9C",
":X c #FCB890",
">X c #FCB080",
",X c #FCA470",
"<X c #FC9C60",
"1X c #F0945C",
"2X c #E88C58",
"3X c #DC8854",
"4X c #D08050",
"5X c #C87C4C",
"6X c #BC7848",
"7X c #B47044",
"8X c #A86840",
"9X c #A0643C",
"0X c #9C6038",
"qX c #905C34",
"wX c #885830",
"eX c #80502C",
"rX c #744C28",
"tX c #6C4824",
"yX c #5C4020",
"uX c #543C1C",
"iX c #483818",
"pX c #403018",
"aX c #382C14",
"sX c #28200C",
"dX c #600064",
"fX c #006464",
"gX c #006060",
"hX c #00001C",
"jX c #00002C",
"kX c #302410",
"lX c #480048",
"zX c #500050",
"xX c #000034",
"cX c gray11",
"vX c #4C4C4C",
"bX c gray36",
"nX c gray25",
"mX c gray19",
"MX c #343434",
"NX c #D8F4F4",
"BX c #B8E8E8",
"VX c #9CDCDC",
"CX c #74C8C8",
"ZX c #48C0C0",
"AX c #20B4B4",
"SX c #20B0B0",
"DX c #00A4A4",
"FX c #009898",
"GX c #008C8C",
"HX c #008484",
"JX c #007C7C",
"KX c #007878",
"LX c #007474",
"PX c #007070",
"IX c #006C6C",
"UX c #980088",
/* pixels */
"6 4 7 6 8 8 4 4 5 7 6 bX5 5 5 # # 4 4 # 4 # # # 5 6 4 5 # # # 2 2 2 4 # # 4 2 # 5 5 7 # 5 5 # 1 1 1 1 # # 4 # 2 2 # # # # 1 2 4 ",
"bX7 7 bXbX0 $ $ 7 $ 7 bXbX8 vX$ 8 6 4 # 4 4 4 7 $ $ 5 6 7 7 7 4 7 6 6 4 4 5 6 4 5 5 6 6 0 nX7 5 4 5 6 5 5 5 8 7 6 7 6 6 7 6 7 7 ",
"7 8 8 vX7 bX6 8 7 bX7 7 7 7 $ nX$ 6 7 # # 5 6 nXnXvX8 8 7 $ $ 8 6 $ nX8 8 $ 7 bXvXvXvX$ $ MXMX0 0 0 vX0 vX0 $ bXnX0 $ $ bXbX$ bX",
"7 7 6 8 7 6 6 8 7 8 bXbX6 8 0 q nX8 8 6 # # 8 MXq nX$ 8 7 0 0 6 $ $ $ 6 $ 8 8 $ 8 bX8 $ 0 0 $ vX$ $ 8 $ $ 0 bX8 nXq 0 8 vX0 8 7 ",
"7 7 7 7 7 8 6 7 6 bXbX8 8 6 6 $ vX$ 8 8 7 5 7 nXMXMXbX8 8 $ 7 7 bXbXbX$ 0 8 7 bX8 8 bX8 8 7 bX0 7 bX$ $ 7 vX$ 8 nXMXnX8 8 $ $ $ ",
"8 7 6 7 8 8 7 8 8 7 vX$ vXbX8 bXbX$ 8 4 # 6 7 nXq nXvXvXbX$ 7 bX8 vX8 bXvX8 bX7 8 7 bX$ 8 vX7 vX$ $ vX$ 8 8 8 $ nX$ $ 0 vX$ bXbX",
"0 $ 8 7 8 bX7 bX8 vX8 8 $ $ $ $ vX0 0 # 2 6 8 0 MXq nXnX$ bXnXbX$ 0 $ 7 $ 8 vXvX8 6 8 8 7 bXbX8 $ vX$ $ vX8 8 bXvX$ vX$ vX0 bX$ ",
"0 nX0 vX0 vX$ $ vXvX0 vX$ vX$ $ vX0 $ # 2 5 5 7 $ nXq q 0 bXq 0 q q q $ 7 bXbX0 nXvXbXbX$ vX0 $ $ 0 $ bX$ bXnX$ vXq q nXvXMX0 nX",
"$ $ bX7 6 7 8 8 7 7 8 bXbX8 6 7 bXnX7 # 1 5 5 # 7 8 vXvXvX$ 0 0 nXnXq nXnXnXvX0 nXnXnX$ 0 nXnXq nXMXnXnXnXq mXq q q nXnXnXnXq q ",
"7 6 6 5 5 5 5 4 4 4 4 4 5 5 # 2 5 5 4 6 4 # # # 5 # 4 # 6 8 8 8 7 7 7 7 7 7 6 7 6 7 7 8 8 bX$ $ $ vX$ bX$ $ vXvX$ $ 8 8 8 7 8 bX",
"8 8 8 8 7 6 6 7 bX8 7 7 6 6 5 7 8 7 5 bX6 5 8 5 4 4 4 5 6 # 4 6 # 4 5 # 5 # # # # 4 # 4 6 6 5 5 5 6 4 4 6 8 8 8 7 6 5 7 8 8 bXbX",
"8 bX8 bX0 nX0 vX0 vXvXnX0 q q nXnXnXnXvX0 $ 0 0 $ 8 bX8 $ 7 7 7 bXbXvXbX8 bX7 7 vX$ 6 8 bXbX0 0 0 0 vX$ $ $ vX8 7 6 6 7 8 8 0 nX",
"8 vX$ 6 7 8 7 7 8 7 6 8 bXvX0 $ $ bX8 6 bXvXnXnX0 8 $ $ 8 0 $ 8 $ $ $ bXvXvX6 8 8 8 6 6 8 7 0 bX0 vX$ bXnXnXvXq 6 < 2 4 7 7 nXMX",
"$ 7 bX8 6 6 8 7 8 7 7 8 7 bXnX0 bX7 bX8 6 bX0 q nXvX0 vX6 8 $ $ $ $ 8 8 8 7 7 7 8 8 7 7 7 6 7 8 8 vXbX$ q q nXnX5 < < 1 2 # 8 nX",
"0 bX$ 0 bX$ bX7 6 8 bX7 8 q 0 $ vX$ 8 7 6 8 0 MXbX$ 0 q $ bXbX$ vXvX$ vXbX6 7 bX8 7 7 6 8 bXbX$ 7 $ $ nXq q q mX# 2 2 < 1 # 7 8 ",
"nXnXvX0 nXq $ 8 7 bXvX$ 8 $ 0 0 vXnX0 bX8 7 0 0 nXvX$ $ 8 vXvX$ $ vX$ vX8 6 5 8 8 $ 7 7 8 8 7 8 $ 8 vXq q q q MX6 2 2 2 1 2 5 6 ",
"$ nXnXq vXvXnX0 vXvX$ 8 vX$ vX0 nXnXnX0 $ 0 q nXq 0 vXq 0 $ 8 $ 0 nXnXnX$ bX7 bXvXvX8 8 0 bX8 8 0 nXq q q q q MX4 2 1 2 2 2 # 6 ",
"4 5 7 7 5 4 4 5 4 4 5 2 # # # # 5 5 4 4 4 # 5 6 6 6 6 6 8 6 4 5 8 8 $ 7 7 5 # 6 6 6 5 6 7 7 6 8 q nXq MXq q q nX# 2 # # 4 1 2 4 ",
"6 4 5 5 8 6 6 4 6 5 4 4 5 4 4 # # # # # # # 4 6 4 6 6 5 4 4 2 # # 2 # 2 # 4 4 # 2 2 1 1 2 # # # 6 5 5 7 $ $ 8 7 5 # 2 4 # # # 5 ",
"bX$ $ 8 bX0 bXbX8 8 8 7 8 8 4 # 2 5 2 # 2 # # 4 4 8 4 6 5 5 5 # 7 8 4 4 6 6 4 6 6 6 6 7 # 6 bX6 5 6 6 5 7 7 4 6 7 8 5 $ $ 7 8 bX",
"vX$ $ vXnXq q nXq 0 bX0 0 8 7 7 4 2 2 2 4 4 1 4 6 $ 6 $ vX0 8 8 8 7 0 8 0 q bX8 8 8 $ 0 $ 8 $ 8 8 $ $ 8 8 bX$ $ bXbXvXnX0 8 vX0 ",
"0 0 7 6 0 nXq q q nXq q nXvXbX$ 7 2 # 4 4 4 5 vXnXvXnXnXMXnX$ vX8 7 $ 7 8 0 nX0 bX$ $ 0 $ $ 0 8 7 $ 0 vX8 6 7 $ $ vX$ q nXvX$ bX",
"8 MX0 8 nXnX$ nXq nXq nXnX$ $ nX$ 2 # 4 2 1 # 5 vX0 0 q 0 nX0 nX0 bX7 6 7 $ nX0 nXvX$ bXvXnXnX8 $ $ vXnX$ $ vX$ nXvXnXnXnXnXq vX",
"bXbX7 nXbXbX8 0 mXq nXbXnXvX$ bX5 1 # 4 2 # bX6 7 vX$ $ $ nXq vX0 0 8 $ $ $ q q bX0 q nXnXnXnX$ vX0 vX0 7 bXbX$ 0 vXvXnXnXq q q ",
"8 8 vX0 7 vX$ 8 6 nX0 nX$ bXnX0 7 # 2 4 # # 0 nX4 5 7 8 6 $ q q nX0 6 6 $ $ 0 q nXnXnX0 bX0 nXnXnXvX8 bXbXvX7 8 6 vXnX0 nX0 0 nX",
"6 6 8 6 6 $ q 0 8 7 8 $ 8 6 8 7 6 2 4 2 # 5 nX8 8 7 5 8 6 8 vXnXMXnX$ # 6 6 0 vX0 0 nXvX7 bXbX0 nXbX7 7 8 $ $ nX6 8 8 $ 0 0 q q ",
"5 8 0 bX7 0 0 6 $ 0 0 0 $ 8 7 7 8 6 2 1 4 8 nXnX6 5 7 6 6 7 $ nXq q q $ 5 6 bXbX8 bXbX8 8 8 8 7 vXnX8 6 7 bXvX7 8 vX$ 8 0 0 bX8 ",
"6 7 $ $ 7 6 8 $ 0 bXbX$ 8 vX8 bXbX5 1 1 1 4 0 MXbX6 7 7 4 $ 0 vX0 $ 0 bX6 6 5 $ 8 $ vX6 8 $ 7 6 $ bX$ 6 7 8 7 bX7 8 bX6 $ vXvX7 ",
"bX$ $ 8 8 0 $ 6 vX8 $ $ 0 8 6 6 5 1 # 2 1 1 $ q bX6 $ 5 7 5 5 5 $ $ $ $ bX7 $ $ bX$ 0 $ 8 8 bX$ bXnXvX8 7 bX8 $ bX8 bX8 6 4 nXbX",
"0 0 0 vX0 vXq 0 vX8 0 $ $ $ 8 bX# # 2 1 2 1 bXMXnXvX0 7 7 6 7 6 7 nXnXnX$ 8 vX$ vX0 bX8 7 bX8 8 bXvX$ 8 6 6 8 8 vXvX0 q $ $ q 0 ",
"nX0 nXvXnXnXq q nXnXnXbX8 bX7 6 # 4 4 # 1 1 # 4 6 8 7 5 6 7 7 6 6 bX7 7 bX6 8 vX8 vX8 6 6 7 7 8 7 bXvXbX8 7 8 7 $ bX$ $ bXbXbXbX",
"4 4 5 4 5 5 5 8 7 8 8 5 6 6 # 4 4 4 4 4 4 # 2 1 2 # # 2 # 2 1 1 1 2 1 2 1 1 2 5 1 # 4 1 2 1 1 1 1 1 2 1 2 2 1 1 1 1 1 1 1 1 1 2 ",
"5 4 4 5 5 7 $ 0 bX$ 0 $ 8 6 6 6 5 5 6 7 8 8 5 5 4 4 4 5 7 4 # 1 2 2 # 4 2 2 2 1 # 7 4 # 4 2 # # 1 2 5 2 5 6 6 6 5 7 4 4 # 4 # # ",
"8 8 6 5 7 8 bX0 nXnXnXnXnXnXq nXnXnX0 nXnXnXnX0 0 vX0 0 nX0 vX0 8 4 2 # 2 # 2 2 6 $ $ 0 bX$ $ vX$ vXvX0 0 nXvXvXq 0 nX0 q q $ vX",
"7 6 7 6 6 6 7 7 bXvX$ 0 q vX0 0 0 0 0 0 0 0 nXnXnX0 0 nX0 vXvXbXnX$ 4 2 4 # < 4 vX0 vX$ 8 7 8 7 6 7 7 7 $ $ $ 8 $ $ $ 8 8 8 $ nX",
"8 8 8 6 7 7 7 6 6 7 7 7 7 7 0 vX0 0 0 0 0 0 0 0 0 0 0 nX0 $ vX$ vX0 5 2 7 8 # 4 7 8 bX8 8 8 7 8 bXbX6 8 8 bXbX7 bX8 $ 6 7 6 7 7 ",
"8 bX8 6 8 7 8 7 6 7 6 7 7 6 6 $ nXvX0 0 0 0 0 0 0 0 nXnXnX0 0 bXbXnX5 < 2 # 5 7 7 bX7 7 $ bX8 $ 8 8 bX8 8 $ vXbX$ 7 bX7 8 6 7 7 ",
"vX8 8 7 6 6 7 6 6 6 6 6 7 5 6 8 0 0 nXnX0 0 vX0 nX0 0 vX$ 0 0 $ vXnX4 < 1 1 6 8 bX8 8 8 8 7 7 $ 8 7 $ 0 8 8 bXnX8 8 7 6 0 5 6 6 ",
"nX$ 8 0 bX7 8 7 5 6 5 6 6 6 4 4 6 7 bXvX0 nX0 nXq nX0 8 8 0 0 0 nXnX5 < 1 2 7 bX0 bX$ vX7 8 8 7 8 8 7 7 8 7 0 vXvX7 7 7 0 vXbX8 ",
"nXvX$ bX8 7 8 $ 6 7 6 6 7 6 4 4 5 5 6 6 8 0 nX0 q nXnX0 $ $ $ nX0 0 8 < 1 2 $ vX0 vX0 nXnXnXvX8 7 $ 6 7 $ nXq 0 $ bX7 bXnX8 $ vX",
"nX$ $ 0 vX7 8 bXbX7 bX6 6 6 5 5 5 6 5 6 7 $ nXnXnX$ $ $ $ 0 vX$ vX0 7 < < # bX0 vX0 0 nXq nXnX$ bXbX8 $ q q q q 0 0 nX0 nX$ 0 $ ",
"0 vXvX$ $ $ 8 8 $ 8 0 0 8 6 5 6 6 7 7 6 bX$ bXq $ $ $ vX0 0 0 vXnXnX6 < < 1 5 $ 8 6 8 vX0 0 q 0 $ 8 bXnXnXq q q nX0 nXq q nXnX0 ",
"0 nXnXvXbXbXbXbX$ bXnXMX0 8 6 6 6 5 6 6 7 $ vX8 8 7 bX$ q nXq nXnXnX5 < < < 1 1 2 # 2 # 4 4 5 5 # # 4 4 5 6 6 6 6 6 6 8 7 8 8 bX",
"5 5 4 2 1 2 2 # # # # 5 # 4 4 4 5 5 5 4 4 5 6 5 # # # # 5 6 5 5 5 7 5 1 2 # 2 2 < 1 2 2 5 7 6 6 4 # 4 2 # # 5 5 6 4 6 7 6 6 7 $ ",
"7 7 6 5 4 2 1 # # 1 4 2 # 1 2 2 # 2 1 # # # 4 5 5 6 5 5 6 6 5 6 7 $ 8 6 6 4 6 7 5 6 6 6 4 6 6 8 6 5 6 5 # # 2 2 5 6 5 8 $ $ 0 0 ",
"q q q q 0 0 0 vXbX7 5 7 6 4 2 1 # # 4 8 0 nX0 nX$ vXq vX0 0 0 0 0 0 0 nXnX0 nX0 nXnX0 0 0 nX0 nX0 nXnXnXnXnX6 2 1 1 # bXnXnXq q ",
"0 nXnX0 0 $ vXvX8 vXbXvXnXMX4 1 1 2 4 7 8 $ bXvX8 5 bX$ bX8 $ 7 8 $ 6 8 $ $ $ bX8 8 bX$ $ 8 vX$ vX0 nXnXq q q 6 2 1 1 vXq 0 q nX",
"$ 0 $ bX8 6 7 7 6 bX8 $ nXq 6 # 1 1 4 6 8 bX$ 0 8 8 bXbX8 7 7 7 8 7 8 7 8 7 7 bX7 6 7 8 7 bX8 8 bXnXq q q q q 8 1 1 1 bXnXq nXq ",
"nXnX8 8 8 6 6 6 6 bX7 $ q nX6 5 1 1 4 7 8 8 0 0 6 7 7 8 bX7 7 6 7 4 7 7 7 7 7 8 8 7 8 bX6 $ 4 5 $ nXq q q q MXbX1 1 1 6 nXnXnXq ",
"nXnXvXbX7 8 6 5 7 8 7 bXnXMX4 2 2 < 4 $ bX7 7 8 8 8 7 6 6 bX7 7 7 7 7 7 6 7 7 6 7 6 8 6 7 7 7 6 0 q q q q q q q # 1 1 4 7 q q q ",
"0 0 nX$ bX8 7 7 7 7 8 0 q q 4 1 1 1 6 0 0 0 7 7 bX7 8 8 6 7 8 7 7 7 8 7 7 6 6 7 8 6 7 7 7 bXbX6 $ q nXq q q q mX4 # # 4 7 $ nXnX",
"nX0 0 q 0 8 $ 8 8 8 $ nXnXnX6 2 1 1 6 0 0 bXbXbXbXbXbX6 7 8 bX7 6 7 8 8 7 7 6 6 8 bX7 6 7 7 8 6 $ nXnXq q q q nX2 2 1 # 7 0 0 0 ",
"q q q vXq 0 q vXbX$ 0 q MXvX5 2 1 2 bXq MX0 $ 8 vX0 $ 7 7 bX$ 8 8 bXbX8 7 8 bX7 7 bX$ 7 6 5 8 7 7 8 0 q nXMXq $ # # 1 2 5 bXbX6 ",
"6 6 5 4 5 6 8 $ 7 8 bX$ bX5 1 1 1 < # 4 5 6 4 5 5 5 7 6 5 8 7 6 5 5 5 5 2 2 # # # # # # # 2 # # 4 5 # 5 6 bX0 5 2 4 # # 2 1 # 2 ",
"2 # # 5 # 2 2 # 6 4 # 2 # 2 5 2 # # 4 # 2 # # 4 2 1 2 1 1 1 1 # < # 2 2 2 1 # 1 1 2 2 1 2 2 1 1 1 4 # 4 4 2 4 5 5 4 2 4 4 # 4 2 ",
"$ 8 6 7 7 7 7 5 7 8 6 5 5 # 5 4 # 2 # 4 4 5 7 6 5 # 2 2 2 2 1 1 1 2 1 1 2 1 2 2 1 # # 2 2 # 4 4 2 4 5 # 4 # # 5 6 6 6 8 7 6 4 # ",
"8 $ 8 $ $ 0 0 0 0 vX$ $ bXvX$ 0 bX8 bXbX$ vXvXvXbX8 5 6 8 5 2 2 2 2 # # # # 5 5 5 6 8 $ 8 7 7 7 8 8 bX$ 8 7 bX$ $ $ 0 nXq 0 $ vX",
"5 7 bX$ 8 $ 0 vXnXbX8 6 8 6 vX$ $ $ $ $ $ $ $ $ bX8 vXq $ 5 2 4 8 $ 0 $ bX$ $ $ $ bX8 $ bXbX7 7 $ 7 $ 0 $ 7 $ $ bXbX$ bXnXvX8 8 ",
"bX6 6 8 6 8 8 8 7 bX8 6 8 $ 8 8 7 bX7 7 7 8 bXvX6 $ nX0 vX8 2 < 4 7 bX8 7 7 8 7 7 7 bXbX7 $ 7 7 vX8 $ bXbXbX$ $ $ $ 8 8 $ $ 8 8 ",
"8 7 6 7 6 7 7 7 8 $ 8 7 $ 6 bX0 8 8 8 7 6 8 bXbXvXnXnXvX$ $ 5 < 5 bXbXbX8 8 7 6 6 7 bXbX8 8 7 7 $ 8 7 bX$ 7 $ 7 8 $ nXvXbX7 8 7 ",
"8 8 bXbX8 6 7 8 $ 8 $ 7 $ 8 7 0 $ 8 $ $ bXbX8 8 $ 0 nXbX6 5 2 1 2 bXbX7 7 7 7 8 7 8 $ bX8 $ bX7 8 bX7 7 8 8 0 6 bX8 $ 0 nXvXbX7 ",
"8 7 7 7 $ $ $ 8 vX$ $ 8 $ vX6 bXbX$ 8 bX8 vXnX0 7 6 6 7 5 # 2 2 # 7 8 7 6 7 bX$ vXvX0 vXvXvXvX0 vX8 $ $ $ $ vX$ bXvX0 $ $ nXbX7 ",
"5 4 # # 2 # # 4 # 4 5 5 5 5 # 5 # 4 5 2 1 4 # 4 # 4 6 7 7 5 6 7 2 5 7 6 8 7 7 6 5 # # # # # # 6 6 6 6 $ nXnX0 bX8 bXvX8 bX$ 8 6 ",
"# 2 1 2 # 1 5 6 5 2 2 # # 5 1 # 2 1 1 2 1 1 # # # # 1 # # 2 4 5 4 # # 2 # 1 1 1 2 2 2 1 1 1 1 2 1 1 < 1 2 1 1 2 # 2 4 2 1 2 4 6 "
};
