/* XPM */
static char *e57b64231f624ba39dd6d512db33629f[] = {
/* columns rows colors chars-per-pixel */
"64 64 256 2 ",
"   c black",
".  c #0000A8",
"X  c #00A800",
"o  c #00A8A8",
"O  c #A80000",
"+  c #A800A8",
"@  c #A85400",
"#  c gray66",
"$  c gray33",
"%  c #5454FC",
"&  c #54FC54",
"*  c #54FCFC",
"=  c #FC5454",
"-  c #FC54FC",
";  c #FCFC54",
":  c gray99",
">  c #ECECEC",
",  c gainsboro",
"<  c #D0D0D0",
"1  c #C0C0C0",
"2  c #B4B4B4",
"3  c gray66",
"4  c #989898",
"5  c gray55",
"6  c #7C7C7C",
"7  c gray44",
"8  c #646464",
"9  c gray33",
"0  c #484848",
"q  c gray22",
"w  c #2C2C2C",
"e  c #202020",
"r  c #FC0000",
"t  c #EC0000",
"y  c #E00000",
"u  c #D40000",
"i  c #C80000",
"p  c #BC0000",
"a  c #B00000",
"s  c #A40000",
"d  c #980000",
"f  c #880000",
"g  c #7C0000",
"h  c #700000",
"j  c #640000",
"k  c #580000",
"l  c #4C0000",
"z  c #400000",
"x  c #FCD8D8",
"c  c #FCB8B8",
"v  c #FC9C9C",
"b  c #FC7C7C",
"n  c #FC5C5C",
"m  c #FC4040",
"M  c #FC2020",
"N  c #FC0000",
"B  c #FCA85C",
"V  c #FC9840",
"C  c #FC8820",
"Z  c #FC7800",
"A  c #E46C00",
"S  c #CC6000",
"D  c #B45400",
"F  c #9C4C00",
"G  c #FCFCD8",
"H  c #FCFCB8",
"J  c #FCFC9C",
"K  c #FCFC7C",
"L  c #FCF85C",
"P  c #FCF440",
"I  c #FCF420",
"U  c #FCF400",
"Y  c #E4D800",
"T  c #CCC400",
"R  c #B4AC00",
"E  c #9C9C00",
"W  c #848400",
"Q  c #706C00",
"!  c #585400",
"~  c #404000",
"^  c #D0FC5C",
"/  c #C4FC40",
"(  c #B4FC20",
")  c #A0FC00",
"_  c #90E400",
"`  c #80CC00",
"'  c #74B400",
"]  c #609C00",
"[  c #D8FCD8",
"{  c #BCFCB8",
"}  c #9CFC9C",
"|  c #80FC7C",
" . c #60FC5C",
".. c #40FC40",
"X. c #20FC20",
"o. c #00FC00",
"O. c #00FC00",
"+. c #00EC00",
"@. c #00E000",
"#. c #00D400",
"$. c #04C800",
"%. c #04BC00",
"&. c #04B000",
"*. c #04A400",
"=. c #049800",
"-. c #048800",
";. c #047C00",
":. c #047000",
">. c #046400",
",. c #045800",
"<. c #044C00",
"1. c #044000",
"2. c #D8FCFC",
"3. c #B8FCFC",
"4. c #9CFCFC",
"5. c #7CFCF8",
"6. c #5CFCFC",
"7. c #40FCFC",
"8. c #20FCFC",
"9. c #00FCFC",
"0. c #00E4E4",
"q. c #00CCCC",
"w. c #00B4B4",
"e. c #009C9C",
"r. c #008484",
"t. c #007070",
"y. c #005858",
"u. c #004040",
"i. c #5CBCFC",
"p. c #40B0FC",
"a. c #20A8FC",
"s. c #009CFC",
"d. c #008CE4",
"f. c #007CCC",
"g. c #006CB4",
"h. c #005C9C",
"j. c #D8D8FC",
"k. c #B8BCFC",
"l. c #9C9CFC",
"z. c #7C80FC",
"x. c #5C60FC",
"c. c #4040FC",
"v. c #2024FC",
"b. c #0004FC",
"n. c #0000FC",
"m. c #0000EC",
"M. c #0000E0",
"N. c #0000D4",
"B. c #0000C8",
"V. c #0000BC",
"C. c #0000B0",
"Z. c #0000A4",
"A. c #000098",
"S. c #000088",
"D. c #00007C",
"F. c #000070",
"G. c #000064",
"H. c #000058",
"J. c #00004C",
"K. c #000040",
"L. c #282828",
"P. c #FCE034",
"I. c #FCD424",
"U. c #FCCC18",
"Y. c #FCC008",
"T. c #FCB400",
"R. c #B420FC",
"E. c #A800FC",
"W. c #9800E4",
"Q. c #8000CC",
"!. c #7400B4",
"~. c #60009C",
"^. c #500084",
"/. c #440070",
"(. c #340058",
"). c #280040",
"_. c #FCD8FC",
"`. c #FCB8FC",
"'. c #FC9CFC",
"]. c #FC7CFC",
"[. c #FC5CFC",
"{. c #FC40FC",
"}. c #FC20FC",
"|. c #FC00FC",
" X c #E000E4",
".X c #C800CC",
"XX c #B400B4",
"oX c #9C009C",
"OX c #840084",
"+X c #6C0070",
"@X c #580058",
"#X c #400040",
"$X c #FCE8DC",
"%X c #FCE0D0",
"&X c #FCD8C4",
"*X c #FCD4BC",
"=X c #FCCCB0",
"-X c #FCC4A4",
";X c #FCBC9C",
":X c #FCB890",
">X c #FCB080",
",X c #FCA470",
"<X c #FC9C60",
"1X c #F0945C",
"2X c #E88C58",
"3X c #DC8854",
"4X c #D08050",
"5X c #C87C4C",
"6X c #BC7848",
"7X c #B47044",
"8X c #A86840",
"9X c #A0643C",
"0X c #9C6038",
"qX c #905C34",
"wX c #885830",
"eX c #80502C",
"rX c #744C28",
"tX c #6C4824",
"yX c #5C4020",
"uX c #543C1C",
"iX c #483818",
"pX c #403018",
"aX c #382C14",
"sX c #28200C",
"dX c #600064",
"fX c #006464",
"gX c #006060",
"hX c #00001C",
"jX c #00002C",
"kX c #302410",
"lX c #480048",
"zX c #500050",
"xX c #000034",
"cX c gray11",
"vX c #4C4C4C",
"bX c gray36",
"nX c gray25",
"mX c gray19",
"MX c #343434",
"NX c #D8F4F4",
"BX c #B8E8E8",
"VX c #9CDCDC",
"CX c #74C8C8",
"ZX c #48C0C0",
"AX c #20B4B4",
"SX c #20B0B0",
"DX c #00A4A4",
"FX c #009898",
"GX c #008C8C",
"HX c #008484",
"JX c #007C7C",
"KX c #007878",
"LX c #007474",
"PX c #007070",
"IX c #006C6C",
"UX c #980088",
/* pixels */
"w w w w w w w w w w w w w w w w w w w w w w w w w w w w w w w w w w w w w w w w w w w w w w w w w w w w w w w w w w w w w w w w ",
"8X8X8X8X8X8X8XwXeXeXrXcXL.L.L.L.L.8XcXL.rXeXwXwX8X8X8X8X8X8X8X8X8X8X8X8X8X8X8XwXeXeXrXcXL.8XcXL.L.L.L.L.rXeXeXwX8X8X8X8X8X8X8X8X",
"wXqXqXwXeXwXqXqXyXcXcXL.L.L.8X8X8XwXcXL.yXqXqX8XqXwXqXqXwXqXwX8X8XqXeXwXeXqXrXrXeXeXyXcXL.8X0X8X8XcXL.L.cXcXyXeXrXeXeXwXqXeXwXqX",
"8X8XwXqXwXeXyXcXcXL.L.L.8X8XwXqXwXqXwXcXL.yX8X8XqXwXwXeXwXwXqX8XqX8XwXqXqXqXwXwXqXuXcXL.8XqXqXwXeX0X8XcXL.L.cXcXyXwXeXeX8XeXeX8X",
"8X8XeXeXwXyXcXL.L.L.8X8XqXqX8XwXeXeXwXcXL.yX8XqXqXwXqXwXwXqXwXqX8XqXqXwXwXqX6XwXqXyXcXL.8XwXeXwXwXqXwX0X8XcXL.L.cXyXqXqX8XqXqX8X",
"qX8XwXqXyXcXL.L.8X8XqXqXqXqX8X8XwXqX8XeXcXL.yXqXqXwXeXeXwXeXwXqX8XqX8X6X8X8XqXwXuXcXL.8XwXqXwXwXqXwXqX8XeX0X8XcXL.cXyXqX8XqXqX8X",
"qX8XqXyXcXL.L.8XqX8XqXqXwXqXqX8XwXqXqX8XcXL.yXeXqXqXqXwXeXrXwXeXeXqXqX8X8XqXqXqXyXcXL.8XwXeXeXwXeXwXqX8XqX8XwX8XcXL.cXyX8X8XqX8X",
"qXwXyXcXcXL.8XqXqXwXqX8XqX8XwX8X8XqXqXwXqXcXL.yXeXqXeXwXwXtXwXwXeXwXqX8XqXqXwXuXcXL.8XqXqXqXwXeXrXwXeXeXqXqX8XwX8XcXL.cXyXqX8X8X",
"aXiXiXcXL.8X8XqXqX8XqXqX8XqXqX8XwX8XqXpXiXcXL.yXuXiXpXpXaXaXsXsXsXaXaXpXpXiXuXyXcXL.wXeXqXeXwXwXtXwXwXeXwXqXwXeX8X8XcXL.cXiXiXaX",
"cXcXcXcXL.yXqXwXqXeXwXqXqXqX8XqXpXpXpXcXcXcXcXcXcXcXcXcXcXcXcXcXcXcXcXcXcXcXcXcXcXL.cXcXyXyXyXqX8XqXqXwXqXwXwXqXwXpXcXL.L.cXcXcX",
"L.L.L.L.L.cXyXyX8XwX8XqX8X8XpXpXcXcXcXL.6 6 6 6 6 6 6 6 6 6 6 6 6 6 6 6 6 6 6 6 6 6 6 w cXcXcXyXyXeXwXqX8XqXqXpXpXcXL.w w L.L.L.",
"w w w w L.L.cXcXyXyXqX8XpXpXcXcXL.6 6 5 1 1 1 1 1 1 1 1 1 cXq q cX  1 1 1 1 1 1 1 1 1 < 4 4 w cXcXyXyX8XeXpXpXcXcXL.w w w w w w ",
"w w 8X8X8XL.L.L.cXcXyXyXcXcXL.6 5 1 1 1 1 1 1 1 1 1 1 cXq 6   $ 6 7   1 1 1 1 1 1 1 1 1 1 1 < 4 w cXcXyXyXcXcXL.L.w 8X8XwXcXL.w ",
"w w 8XwXwX8X8XL.L.L.cXcXL.6 5 1 1 1 1 1 1 1 1 1 1 1 1 q 6 6 6 6 6 6   1 1 1 1 1 1 1 1 1 1 1 1 1 < 4 w cXcXcXL.w 8X8XwXqXyXcXL.w ",
"w 8XwX8X8XwXqXqXiXcXL.L.6 1 1 1 1 1 1 1 1 1 1 1 1 1 1 cX1 1 mX6 6 6   1 1 1 1 1 1 1 1 1 1 1 1 1 1 1 < w L.L.8X8XwXwXwXwXwXyXe w ",
"w 8XwXwXqXqXwXeXuXcXL.6 1 1 1 1   mXmX  1 1 1 1 1 1 1 1 1 1 0 6 6 8   1 1 1 1 1 1 1 1   mXmX  1 1 1 1 < w w 8XwXwXqXqXqXqXyXe w ",
"w 8XeXwXwX8XwXiXcXL.6 1 1 1 1   0 7 6 7   1 1 1 1 1 1 1 1   $ 6 $ $   1 1 1 1 1 1 1   7 6 7 0   1 1 1 1 < w cX8XqX8X8XqXeXyXe w ",
"w 8XqXwXwXwXeXuXcX6 1 1 1 1   6 q 6 6 6 7   1 1 1 1 1 1   $ 6 q 7 8 $   1 1 1 1 1   7 6 6 6 q 6   1 1 1 1 < w 8XwXwXwXwXeXyXe w ",
"w 8XwXwXeXwXiXcXL.6 1 1 1 1 mX8 0 6 $ 7 6 7   1 1 1 1   8 6 6 0 6 $ 8 cX  1 1 1   7 6 7 $ 6 0 8 mX1 1 1 1 , w cXwXwXqXwXeXyXe w ",
"w uXiXpXpXiXuXcX5 1 1 1 1 1 8 e 6 mX0 mX7 6 7           6 6 6 0 8 8 0 0         7 6 7 mX0 mX6 e 8 1 1 1 1 1 < w uXiXpXpXiXuXe w ",
"w cXcXcXcXcXcXcX5 1 1 1 1 1 8 e mX6 6 mXq 6 6 8 7 7 0 mX6 6 q 6 $ mX6 8 mX6 7 8 6 6 q mX6 6 mXe 8 1 1 1 1 1 , w cXcXcXcXcXcXcXw ",
"w L.L.L.L.L.L.L.4 1 1 1 1 1 8 mX7 6 mX6 q 7 mX0 6 6 e $ 7 6 $ 6 q q 6 $ mX6 6 0 mX7 q 6 mX6 7 mX8 1 1 1 1 1 , w L.L.L.L.L.L.L.w ",
"8X8X8XwXeXeXrXL.5 1 1 1 1 1 8 e 8 mX6 6 7 mX7 0 8 cXq 6 mX6 8 0 6 $ 6 $ mX7 8 0 7 mX7 6 6 mX8 e 8 1 1 1 1 1 , w rXeXeXwX8X8X8X8X",
"6X4X4X6X6X4XyXe 6 1 1 1 1 1 8 e 7 0 mX8 e 8 6 6 mX6 cX0 q 0 8 6 6 6 q 7 q $ mX6 6 8 e 8 mX0 7 e 8 1 1 1 1 1 , w tXqXeXqX8XqXqXeX",
"6X6X4X4X6X6XyXe 6 1 1 1 1 1 8 e 7 0   6 0 mX0 mX6 6 mX7 $ mX6 6 8 $ 6 6 mX6 6 mX0 mX0 6   0 7 e 8 1 1 1 1 1 , w tX8XqXwXqX8XwXqX",
"4X4X6X4X8XqXyXe 6 1 1 1 1 1 $ e 7 0   6 0   $ 0 mX6 mX6 8 0 0 6 $ $ 6 6 q 6 mX0 $   0 6   0 7 e $ 1 1 1 1 1 , w tX8XwXwXwXwXwXwX",
"6X6X6X4X6XqXyXe 6 1 1 1 1 1 0   0 0   6 0   6 0   7 e 6 q 6 6 mX6 $ 6 6 mX7   0 6   0 6   0 0   0 1 1 1 1 1 , w tXwXwXeXqXwX8XqX",
"8X6X8X6X8XqXyXe 6 1 1 1 1 1     cX0   0 0   6 0   6   6 0 6 6 q 6 0 0 0 0 6   0 6   0 0   0 cX    1 1 1 1 1 , w tXwXqX8X8XqXqX8X",
"8X8X8X8X8XqXyXe 6 1 1 1 1 1 0   1 0   cX0   0 0   6 e mX6 6 7 8 8 8 8 8 mX6   0 0   0 cX  0 1   0 1 1 1 1 1 , w tXqX8XqXqX6X8X8X",
"wXwXqXqXqX8XyXe 6 1 1 1 1 1 0   1 0   1 0   cX0   0 cX$ 6 q $ 6 mX7 6 6 0 0   0 cX  0 1   0 1   0 1 1 1 1 1 , w tX8X6X6X6X4X8X6X",
"aXaXpXiXuXuXuXe 6 1 1 1 1 1 0   1 0   1 0   1 0   cXmX$ 6 6 $ 6 8 $ 7 6 mXcX  0 1   0 1   0 1   0 1 1 1 1 1 , w uXuXuXiXpXaXaXaX",
"cXcXcXcXcXcXcXcX5 1 1 1 1 1 0   1 0   1 0   1 0   1   q 7 6 $ 6 6 $ $ 7 q 1   0 1   0 1   0 1   0 1 1 1 1 1 , w cXcXcXcXcXcXcXcX",
"L.L.L.L.L.L.L.L.4 1 1 1 1 1 0   1 0   1 0   1 0   1   6 0 6 $ 6 6 7 e 6 mX1   0 1   0 1   0 1   0 1 1 1 1 1 , w L.L.L.L.L.L.L.L.",
"w rXeXeXwX8XrXL.5 1 1 1 1 1 0   1 0   1 0   1 0   1 cX6 $ 7 8 6 6 0 $ 6 q 1   0 1   0 1   0 1   0 1 1 1 1 1 , w rXeXeXwX8XrXL.w ",
"w tXeXeXrXwXyXe 6 1 1 1 1 1 0   1 0   1 0   1 0   1   q 7 q     e 8 7 7 e 1   0 1   0 1   0 1   0 1 1 1 1 1 , w tX8X8X8X8XyXe w ",
"w tXeXqXeXtXyXe 6 1 1 1 1 1 0   1 0   1 0   1 0 8 1   q $ e 1 1 e 8 $ 6   1 8 0 1   0 1   0 1   0 1 1 1 1 1 , w tX8XwX8X8XyXe w ",
"w tXqXqXqXrXyXe 6 1 1 1 1 1 0   1 0   1 0   1 $ 1 1 1 e $ e 1   1 e $ e 1 1 1 $ 1   0 1   0 1   0 1 1 1 1 1 , w tXqX6X6X4XyXe w ",
"w tXqXwXeXeXyXe 6 1 1 1 1 1 0   1 0   1 0   1 $ 1 1 1 e $ e   7   e $ e 1 1 1 $ 1   0 1   0 1   0 1 1 1 1 1 , w tXqX6X8X6XyXe w ",
"w tXwXwXwXwXyXe 6 1 1 1 1 1 0   1 0   1 0 8 1 1 1 1 1 e 0 e 7 6 7 e 0   1 1 1 1 1 8 0 1   0 1   0 1 1 1 1 1 , w tX8XqX6X6XyXe w ",
"w tXqXeXtXeXyXe 6 1 1 1 1 1 0 8 1 0   1 $ 1 1 1 1 1 e 0 0   6 7   e 0 0   1 1 1 1 1 $ 1   0 1 8 0 1 1 1 1 1 , w tX8XqX6X6XyXe w ",
"w tXwXwXeXeXyXe 6 1 1 1 1 1 $ 1 1 0   1 $ 1 1 1 1 1 e 0   6 7   1   e 0 0   1 1 1 1 $ 1   0 1 1 $ 1 1 1 1 1 , w tXqXqX8X8XyXe w ",
"w uXiXpXpXiXuXe 6 1 1 1 1 1 $ 1 1 0   1 1 1 1 1 1 1 e   6 7   1   7 6 e e   1 1 1 1 1 1   0 1 1 $ 1 1 1 1 1 , w uXiXpXpXiXuXe w ",
"w cXcXcXcXcXcXcX5 1 1 1 1 1 1 1 1 0 8 1 1 1 1 1 1   1   7 6 7   7 6 7 6 7   1 1 1 1 1 1 8 0 1 1 1 1 1 1 1 1 , w cXcXcXcXcXcXcXw ",
"w L.L.L.L.L.L.L.4 1 1 1 1 1 1 1 1 $ 1 1 1 1 1 1   7   1   7 6 7 6 7   7 6 7   1 1 1 1 1 1 $ 1 1 1 1 1 1 1 1 , w L.L.L.L.L.L.L.w ",
"8X8X8XwXeXeXrXL.5 1 1 1 1 1 1 1 1 $ 1 1 1 1 1   7 6 7   1   7 6 7   1   7 6 7   1 1 1 1 1 $ 1 1 1 1 1 1 1 1 , w rXeXeXwX8X8X8X8X",
"rXeXeXrXwXeXyXe 6 1 1 1 1 1 1 1 1 1 1 1 1 1 1 1   7 6 7   7 6 7 6 7   1   7   1 1 1 1 1 1 1 1 1 1 1 1 1 1 1 , w tX8XqX8X8X6X8X8X",
"eXeX8XwXeXwXyXe 6 1 1 1 1 1 1 1 1 1 1 1 1 1 1 1 1   7 6 7 6 7   7 6 7   1   1 1 1 1 1 1 1 1 1 1 1 1 1 1 1 1 , w tXqXqX8X6X4X6X6X",
"qXwXqX8XqXeXyXe 6 1 1 1 1 1 1 1 1 1 1 1 1 1 1 1 1 1   7 6 7   1   7 6 7   1 1 1 1 1 1 1 1 1 1 1 1 1 1 1 1 1 , w tXqX8XqX4X4X3X8X",
"wXqXwX8XqXwXyXe 6 1 1 1 1 1 1 1 1 1 1 1 1 1 1 1 1 1 1   7   1   7 6 7   1 1 1 1 1 1 1 1 1 1 1 1 1 1 1 1 1 1 , w tX8X8X8X4X4X4X4X",
"qXqXwXqXqX8XyXe 6 1 1 1 1 1 1 1 1 1 1 1 1 1 1 1 1 1 1 1   1   7 6 7   1 1 1 1 1 1 1 1 1 1 1 1 1 1 1 1 1 1 1 , w tX6X6X6X8X4X4X3X",
"wX8XqXqX8X4XyXe 6 1 1 1 1 1 1 1 1 1 1 1 1 1 1 1 1 1 1 1 1   7 6 7   1 1 1 1 1 1 1 1 1 1 1 1 1 1 1 1 1 1 1 1 , w tX8X8X6X8X8X6X6X",
"qX6X6X8X8X8XyXe 6 1 1 1 1 1 1 1 1 1 1 1 1 1 1 1 1 1 1 1 1 1   7   1 1 1 1 1 1 1 1 1 1 1 1 1 1 1 1 1 1 1 1 1 , w tX8XwXqX8XqX6X4X",
"aXaXpXiXuXuXuXe 6 1 1 1 1 1 1 1 1 1 1 1 1 1 1 1 1 1 1 1 1 1 1   1 1 1 1 1 1 1 1 1 1 1 1 1 1 1 1 1 1 1 1 1 1 , w uXuXuXiXpXaXaXaX",
"cXcXcXcXcXcXcXe 5 < , , , , , , , , , , , , , , , , , , , , , , , , , , , , , , , , , , , , , , , , , , , , , w cXcXcXcXcXcXcXcX",
"L.L.L.L.L.L.L.L.w w w w w w w w w w w w w w w w w w w w w w w w w w w w w w w w w w w w w w w w w w w w w w w w L.L.L.L.L.L.L.L.",
"w rXeXeXwX8X8X8X8X8X8X8X8X8X8X8X8X8X8X8X8X8X8X8X8X8XwXeXeXrXL.w w rXeXeXwX8X8X8X8X8X8X8X8X8X8X8X8X8X8X8X8X8X8X8X8X8XwXeXeXrXL.w ",
"w tXqXqX8XqX8X8X6X8X8X8X6X8XqXqX8X8X8XqXeXrXwXeXqXqXqX8X8XyXe w w tX8XqX8XwXqXqXqX6X6X6X8X6X8XqXqX8X8XqXqXqXwXeXqX8X8XqX6XyXe w ",
"w tXqXqXqX8XwX6X6X4X4X6XqXwXqXqXqX8XqX8XqXeXwXqXqX8XqX6X8XyXe w w tXeXqXwXwXwXqXqXqX6X8X6X8X8X8XqX8XwXqXqXqXwXwXwXwXqX8X6XyXe w ",
"w tXwXeXwX8XqX6X6X6X6X6XqX8XwXeXwXqXwXqX8XwXeX8X8X8XqX6X8XyXe w w tXrXqXqXwXqXwXqXwX8XqX8X8XqXqXqXwXeXwXwXwXqXwX8XqXqX8XqXyXe w ",
"w tXrXtXwXrX6X8X6X6X4X6XqXwXeXwXeXqXqXqXqX8XwXqX8X8X6X6XqXyXe w w tXqXqXwXwXeXeXeXeXqXqX8X8XqXwXwXtXqXeXqX8XqXqX8X8XqX8X8XyXe w ",
"w tXwXrXwXqXqX8X8X6X6X4X8XqXwXtXrXwXwX8XqX8XqXqX8X8X8X8XqXyXe w w tXrXwXqXwXrXeXeXeXeXeX8XqX8XqXwXrXwXwXeX8X8X8X6X6XqXwXeXyXe w ",
"w tXwXeXrXwXqXqX8X8XqX8XqXqXqXwXeXwXwX8XqX8X8XqXqX8XqX8X8XyXe w w tXwXrXeXrXwXtXeXwXrXeXqXwX8X8XqXqXeXqXwXqX6X8X8XqX8X8XeXyXe w ",
"w uXuXuXiXpXaXaXaXsXsXsXsXsXsXsXsXsXsXsXsXaXaXaXaXpXiXuXuXuXe w w uXuXuXiXpXaXaXaXsXsXsXsXsXsXsXsXsXsXsXsXaXaXaXaXpXiXuXuXuXe w ",
"w cXcXcXcXcXcXcXcXcXcXcXcXcXcXcXcXcXcXcXcXcXcXcXcXcXcXcXcXcXcXw w cXcXcXcXcXcXcXcXcXcXcXcXcXcXcXcXcXcXcXcXcXcXcXcXcXcXcXcXcXcXw "
};
