/* XPM */
static char *_30130d84b8c4b94c3531b9a8b637a4f[] = {
/* columns rows colors chars-per-pixel */
"64 64 256 2 ",
"   c black",
".  c #0000A8",
"X  c #00A800",
"o  c #00A8A8",
"O  c #A80000",
"+  c #A800A8",
"@  c #A85400",
"#  c #4C4436",
"$  c gray33",
"%  c #5454FC",
"&  c #524A42",
"*  c #5E5246",
"=  c #736352",
"-  c #685D4C",
";  c #FCFC54",
":  c gray99",
">  c #ECECEC",
",  c gainsboro",
"<  c #D0D0D0",
"1  c #C0C0C0",
"2  c #B4B4B4",
"3  c gray66",
"4  c #989898",
"5  c gray55",
"6  c #7C7C7C",
"7  c gray44",
"8  c #646464",
"9  c gray33",
"0  c #484848",
"q  c gray22",
"w  c #2C2C2C",
"e  c #202020",
"r  c #FC0000",
"t  c #EC0000",
"y  c #E00000",
"u  c #D40000",
"i  c #C80000",
"p  c #BC0000",
"a  c #B00000",
"s  c #A40000",
"d  c #980000",
"f  c #880000",
"g  c #7C0000",
"h  c #700000",
"j  c #640000",
"k  c #580000",
"l  c #4C0000",
"z  c #400000",
"x  c #FCD8D8",
"c  c #FCB8B8",
"v  c #FC9C9C",
"b  c #FC7C7C",
"n  c #FC5C5C",
"m  c #FC4040",
"M  c #FC2020",
"N  c #FC0000",
"B  c #FCA85C",
"V  c #FC9840",
"C  c #FC8820",
"Z  c #FC7800",
"A  c #E46C00",
"S  c #CC6000",
"D  c #B45400",
"F  c #9C4C00",
"G  c #FCFCD8",
"H  c #FCFCB8",
"J  c #FCFC9C",
"K  c #FCFC7C",
"L  c #FCF85C",
"P  c #FCF440",
"I  c #FCF420",
"U  c #FCF400",
"Y  c #E4D800",
"T  c #CCC400",
"R  c #B4AC00",
"E  c #9C9C00",
"W  c #848400",
"Q  c #706C00",
"!  c #585400",
"~  c #404000",
"^  c #849C7B",
"/  c #738C6B",
"(  c #6B7B63",
")  c #637352",
"_  c #5A6B52",
"`  c #525A4A",
"'  c #4A5242",
"]  c #425239",
"[  c #394A39",
"{  c #313931",
"}  c #313929",
"|  c #293129",
" . c #293121",
".. c #212921",
"X. c #182118",
"o. c #181818",
"O. c #00FC00",
"+. c #00EC00",
"@. c #00E000",
"#. c #00D400",
"$. c #04C800",
"%. c #04BC00",
"&. c #04B000",
"*. c #04A400",
"=. c #049800",
"-. c #048800",
";. c #047C00",
":. c #047000",
">. c #046400",
",. c #045800",
"<. c #044C00",
"1. c #044000",
"2. c #C8BFB2",
"3. c #A89A85",
"4. c #9A8C77",
"5. c #7CFCF8",
"6. c #5CFCFC",
"7. c #40FCFC",
"8. c #20FCFC",
"9. c #00FCFC",
"0. c #00E4E4",
"q. c #00CCCC",
"w. c #00B4B4",
"e. c #009C9C",
"r. c #008484",
"t. c #007070",
"y. c #005858",
"u. c #004040",
"i. c #94846B",
"p. c #8C7B67",
"a. c #847B63",
"s. c #81735D",
"d. c #7B6B5A",
"f. c #007CCC",
"g. c #006CB4",
"h. c #005C9C",
"j. c #736B5A",
"k. c #736B52",
"l. c #9C9CFC",
"z. c #7C80FC",
"x. c #5C60FC",
"c. c #4040FC",
"v. c #2024FC",
"b. c #0004FC",
"n. c #0000FC",
"m. c #0000EC",
"M. c #0000E0",
"N. c #0000D4",
"B. c #0000C8",
"V. c #0000BC",
"C. c #0000B0",
"Z. c #0000A4",
"A. c #000098",
"S. c #000088",
"D. c #00007C",
"F. c #000070",
"G. c #000064",
"H. c #000058",
"J. c #00004C",
"K. c #000040",
"L. c #282828",
"P. c #FCE034",
"I. c #FCD424",
"U. c #FCCC18",
"Y. c #FCC008",
"T. c #FCB400",
"R. c #B420FC",
"E. c #A800FC",
"W. c #9800E4",
"Q. c #8000CC",
"!. c #7400B4",
"~. c #60009C",
"^. c #500084",
"/. c #440070",
"(. c #340058",
"). c #280040",
"_. c #FCD8FC",
"`. c #FCB8FC",
"'. c #FC9CFC",
"]. c #FC7CFC",
"[. c #FC5CFC",
"{. c #FC40FC",
"}. c #FC20FC",
"|. c #FC00FC",
" X c #E000E4",
".X c #C800CC",
"XX c #B400B4",
"oX c #9C009C",
"OX c #840084",
"+X c #6C0070",
"@X c #580058",
"#X c #400040",
"$X c #FCE8DC",
"%X c #FCE0D0",
"&X c #FCD8C4",
"*X c #FCD4BC",
"=X c #FCCCB0",
"-X c #FCC4A4",
";X c #FCBC9C",
":X c #FCB890",
">X c #FCB080",
",X c #FCA470",
"<X c #FC9C60",
"1X c #F0945C",
"2X c #E88C58",
"3X c #DC8854",
"4X c #D08050",
"5X c #C87C4C",
"6X c #BC7848",
"7X c #B47044",
"8X c #A86840",
"9X c #A0643C",
"0X c #9C6038",
"qX c #905C34",
"wX c #885830",
"eX c #80502C",
"rX c #744C28",
"tX c #6C4824",
"yX c #5C4020",
"uX c #543C1C",
"iX c #483818",
"pX c #403018",
"aX c #382C14",
"sX c #28200C",
"dX c #600064",
"fX c #006464",
"gX c #006060",
"hX c #00001C",
"jX c #00002C",
"kX c #302410",
"lX c #480048",
"zX c #500050",
"xX c #000034",
"cX c gray11",
"vX c #4C4C4C",
"bX c gray36",
"nX c gray25",
"mX c gray19",
"MX c #343434",
"NX c #2E2B22",
"BX c #B8E8E8",
"VX c #9CDCDC",
"CX c #74C8C8",
"ZX c #48C0C0",
"AX c #20B4B4",
"SX c #20B0B0",
"DX c #00A4A4",
"FX c #009898",
"GX c #008C8C",
"HX c #008484",
"JX c #007C7C",
"KX c #007878",
"LX c #007474",
"PX c #007070",
"IX c #006C6C",
"UX c #980088",
/* pixels */
"aXaXaXaXaXL.w mXw aXaXaXpXpXaXw w w w w w aXL.aXw w w mXw aXaXaXpXpXaXw w w w w L.L.L.w pXaXL.w aXL.L.L.L.aXL.aXL.w aXL.aXaXaXaX",
"aXaXaXpXaXL.w w w aXaXaXaXw w L.w mXw w w aXaXaXw w w w w aXaXaXaXw w L.w mXw aXaXw L.aXaXL.L.w w w L.L.L.L.L.aXL.w w aXaXaXaXaX",
"L.w aXpXaXaXw aXpXaXaXaXw w w w mXmXpXaXaXaXaXaXw MXw aXpXaXaXaXw w w w mXmXpXpXpXmXw aXaXL.L.aXw w w L.L.L.aXaXw aXw aXL.L.L.L.",
"L.w pXpXaXpXpXpXpXpXaXaXw w w aXw pXpXpXw aXaXaXw mXpXpXpXpXaXaXw w w aXw pXpXpXpXmXpXaXaXaXaXaXw w w L.L.L.aXL.L.aXw L.L.L.L.L.",
"aXaXL.L.kXkXkXaXaXaXaXL.L.kXkXkXkXkXaXw L.kXkXkXe aXaXaXaXaXaXL.L.kXkXkXkXkXaXaXe e kXkXkXsXsXkXkXaXaXaXL.e e e e aXL.L.kXkXkXkX",
"sXsXcXcXcXsXcXsXsXsXsXcXcXcXsXcXcXcXsXsXcXcXcXsXcXsXsXsXsXsXsXcXcXcXsXcXcXcXsXsXcXcXsXsXcXcXcXcXsXsXsXsXsXsXcXcXcXsXcXcXcXsXcXcX",
"e mXq q w MXq mXq q q q q q q q q q q MXq MXMXq nXMXq q mXnXmXe e mXnXq mXnXMXMXq nXq q q nXmXq nXq MXq q q MXq q MXMXq mXq mXe ",
"e mXq q q mXq q MXnXMXmXnXMXq mXq q mXMXMXq q q q q q MXnXMXmXe e mXq q q q q nXw q q q q q q q q q q q q MXmXq q q mXq q q mXe ",
"e mXq q nXq q MXnXmXnXMXq q MXw q q q q q nXq q q q q q q q mXe e mXq q q q q q q q nXq nXq q q q q mXMXq q MXmXq nXmXq q q mXe ",
"e mXq q q q q MXMXq mXq nXq q mXq q q MXq MXnXMXnXMXnXMXq MXmXe e mXq q q mXq q nXMXq q q q mXq q nXmXq nXq q w q mXq MXq q mXe ",
"e mXq nXq q q MXq nXq q q MXq q mXq q nXq q MXq q mXq q q q mXe e mXq nXMXq q q q nXq q q MXMXq q q q nXMXMXL.mXq MXnXq q q mXe ",
"e mXMXMXq mXq nXmXq MXnXnXq nXq q q q nXMXq q q q q q q q q mXe e mXnXmXq q q MXq q q nXmXnXmXmXq mXq q nXq q q q nXq nXnXMXmXe ",
"e mXnXMXq MXq q MXq q q nXq q q q q nXq q q MXq mXq w MXq mXmXe e mXMXL.MXq q w q q q q q q nXMXq q q nXnXMXMXq nXMXnXq nXMXmXe ",
"e mXq MXq nXq q MXq q q nXq MXq mXq nXq MXmXq q q w q q q w mXe e mXq q MXq nXq q q q q q nXmXq nXnXq q q MXq q mXq nXq q q mXe ",
"e mXq q q MXq q q q nXq MXq q mXq q 0 MXq MXq nXq mXq MXw q mXe e mXmXq mXq q q nXq q q nXMXMXq q q MXq mXq q q nXmXq q nXMXmXe ",
"e mXnXq q mXq q q q q q q q q q q nXq q q q q q mXmXq q q q mXe e mXnXq q q q q { q MXnXmXq q q MXq q nXMXq q nXq nXnXMXq mXmXe ",
"e mXq q MXq q q nXnXw MXq nXMXq q q q MXq mXMXq q w q L.nXMXmXe e mXmXq q MXq q w q mXnXMXmXq MXMXnXnXMXq nXmXq q nXq mXq MXmXe ",
"e mXq q q q q MXnXnXq q q nXq nXMXq 0 mXMXq MXq q MXnXq MXnXmXe e mXnXq nXmXq MXnXnXq nXnXq 0 mXnXq q nXq nXMXnXMXnXmXq nXnXmXe ",
"e mXq q MXnXq q q nXnXnXq q nXq q q MXq q q q q q q mXq q q mXe e mXnXMXq MXMXq q MXMXnXMXq q q q q nXMXnXq q MXq q nXq q nXmXe ",
"e mXq q MXq MXq q q q q q q q MXmXnXq q nXq q q q q nXnXmXmXmXe e mXMXMXq q mXnXq nXnXnXnXnXnXMXq q MXq q q q MXq nXMXq q nXmXe ",
"e mXq mXq q MXMXq nXMXMXq q MXq q nXq q MXq q nXmXq q nXMXmXmXe e mXq q q MXnXq MXq mXq q q nXq q nXmXq q q nXq q q mXnXmXq mXe ",
"e mXq MXMXnXq q q MXmXnXq mXq q q nXw q q MXMXnXq q MXq mXMXmXe e mXq MXq MXnXnXq nXnXnXq MXq q q nXq w q MXq nXmXnXq q MXmXmXe ",
"e mXMXnXq q nXq q { mXmXmXq nXq q mXq q MXMXMXnXq mXq q mXMXmXe e mXq MXq nXMXq q q mXnXq MXmXq q nXq q nXq q q nXq q q nXq mXe ",
"e mXq q q q nXq q q q q w MXq MXq q MXq q MXq q q nXq q q MXmXe e mXMXq nXq q nXnXq L.q nXMXMXq MXnXq q nXnXmXq MXq q q q nXmXe ",
"e mXnXq q q nXq q nXmXq q q nXmXq MXMXnXMXnXq q nXq q q MXmXmXe e mXmXq nXmXq nXq q q nXMXMXq q nXmXq MXmXMXq nXnXq mXq nXq mXe ",
"e mXnXnXMXq q q q nXMXq nXmXq MXMXq q q q nXq q MXq nXq q MXmXe e mXnXq mXnXq q q mXq MXmXnX0 MXMXq q q MXMXq q q q q q q MXmXe ",
"e mXmXq q nXq nXq q mXq q q nXMXMXMXq q q q q mXq q q q MXq mXe e mXMXq q nXq MXq q q q q q q w q MXq nXq q q q nXnXq q nXq mXe ",
"e mXMXq q q q q nXq q nXnXq nXmXnXq q mXnXq q q MXMXq q MXq mXe e mXMXq nXq MXnXq q q MXq q nXnXq q MXq q q q nXq nXnXMXq nXmXe ",
"e mXq mXq q q q q q nXnXnXMXq nXMXnXq q q q nXq q q mXq q nXmXe e mXq mXmXnXmXq q q q q nXq q w q nXq MXnXnXMXMXq nXq MXmXq mXe ",
"e mXnXq w w q q MXMXq nXq nXmXnXMXq q q q MXMXnXq q q MXMXq mXe e mXq nXq 0 q 0 q w mXq MXq q q nXq nXnXq nXq nXMXMXnXq q q mXe ",
"e mXmXnXq MXq nXnXq 0 q nXq nXq nXq MXmXq MXq q nXq q q q MXmXe e mXq w nXMXq 0 MXq q nXq q q 0 nXq q nXnXq nXnXq MXnXnXq mXmXe ",
"e mXq q q nXq q q q q q nX0 nXnXMXq q mXq q nXmXMXq q q nXq mXe e mXMXmXnXnXq q MXq q MXq nXmXnXq nXq MXnXq q q q q nXMXq q mXe ",
"e mXnXMXq MXq nXq q q nXnXnXq MXMXq nXnXmXq mXq q q q q nXnXmXe e mXnXq nXq MXq MXnXq MXMXnXMXmXq q q nXnXq nXnXq q nXnXq mXmXe ",
"e mXq q 0 q nXMXq q q q nXq q MXmXq nXnXnXq nXnXq MXMXnXmXMXmXe e mX0 nXnXnXq q q nXnXnXnXq nXnXMXq q w nXq 0 nXq mXnXq nXq mXe ",
"e mXMXnXnXnXq q q nXq nXq MXnXq q q nXnXnXq mXq MXq w q nXnXmXe e mXq nXq mXMXq q q q q MXq MXq nXq q w nXq nXMXMXnXq q nXnXmXe ",
"e mXnXnXw nXq q q MXnXq q q q nXmXq q mXnXq q w q MXq nXMXMXmXe e mXq nXnXq q q q MXnXq q q nXMXMXnXq q q q nXq q q q q q MXmXe ",
"e mXq nXq q mXMXq q nXq q 0 mXq q nXnXMXq MXMXMXq w mXq L.MXmXe e mXnXnXnXnXmXq L.q q MXmXq nXMXnXq q q nXq q mXq nXq nXq MXmXe ",
"e mXq 0 mXnXq q nXq nXq q nXnXq nXq q nXMXnXnXq q w q q q q mXe e mXnXnXMXnXMXMXq L.mXq nXMXnXMXnXq nXnXq q q MXq q q q MXq mXe ",
"e mXq q MXnXMXnXMXnXMXnXnXq q nXnXq q w nXq q nXq q q q q q mXe e mXq q q q MXMXq nXq mXq nXq nXnXnXnXq q q q nXq q q q nXnXmXe ",
"e mXnXnXMXnXq q mXq mXq nXnXq q q q nXmXq q MXq nXw q MXnXnXmXe e mXnXnXq w q q w nXq q q q q nXnXnXnXq 0 nXq q nXq q q nXnXmXe ",
"e mXnXq q q nXq q q q nXq q MXnXq nXMXMXq q MXnXq nXq mXmXq mXe e mXnXMXq q q nXw q nXnXMXMXnXnXnXnXq q q nXq q nXq nXMXnXMXmXe ",
"e mXq nXq q q q MXw q nXnXnXq nXnXMXMXq nXq q q MXq q nXmXnXmXe e mXq q MXnXnXnXnXnXq q q q q q nXMXnXq nXq MXq q q q q nXq mXe ",
"e mXq nXq q MXmXMXq q q q nXMX0 q mXMXnXMXnXw MXnXq q MXq q mXe e mXq w nXnXnXMXMXq nXnXMXnXnXq MXq mXmXMXnXq q q q q q q nXmXe ",
"e mXq MXq nXq q { q q nXq MXq q MXMXL.nXMXnXnXMXnXq q q q q mXe e mXq MXMXq q nXq MXq q mXnXmXMXq MXnXq q MXq q q q MXq nXnXmXe ",
"e mXq q nXnXq q nXq nXq nXq q nXq MXq MXq 0 MXmXq mXq q nXq mXe e mXnXMXq q nXMXnXq q nXMXq q q nXnXq nXq q q q nXq q q nXnXmXe ",
"e mXMXnXnXnXq nXq nXMXq q 0 q nXmXq nXnXnXMXq nXq q nXmXMXnXmXe e mXq nXq nXq q MXq q q q MXnXq nXq q nXnXnXq q nXq q q q nXmXe ",
"e mXnXq nXnXMXq q nXnXnXq nXq q 0 MXMXq nXq nXnXmXMXnXnXq q mXe e mXw q q nXnXq MXq nXq q mXnXq q nXnXq q nXMXMXMXq q nXnXq mXe ",
"e mXmXnXq nXq nXnXq q q 0 nXnXnXmXnXnXq nXq q q q q q 0 w MXmXe e mXq mXmXnXq MXmXq q q nXw nXMXnXnXnXnXq q q nXnXMXq nXq nXmXe ",
"e mXq q nXq nXq q nXq MXnXq nXq MXq 0 q q MXq q q q MXnXq q mXe e mXq q nXMXq q q q q q q q MXq q nXMXnXq q q MXq MXnXnXq q mXe ",
"e mXMXq nXq nXq q MXMXq nXnXq nXMXq nXq nXq nXnXw q w q q nXmXe e mXnXL.nXq q nXq MXnXq MXq q q q nXq q q MXq mXnXmXMXq q MXmXe ",
"e mXq q nXq q nXnXq q nXnXq nXnXq MXq nXq MXq MXq q w q q nXmXe e mXMXmXq q nXMXMXq q q MXq MXnXnXnXw MXmXnXMXq q nXq nXq q mXe ",
"e mXq nXq q mXq nXq q nXq q q q nXMXnXMXq q q q q q q q q q mXe e mXq q MXq MXw MXq q MXq q mXq q q q nXmXnXq q q nXq q nXq mXe ",
"e mXq q q nXMXq nXnXq q nXnXMXMXnXq q nXw MXq nXq MXq nXq mXmXe e mXnXq MXMXw w MXL.q q q q q q q q MXnXMXMXq nXMXq MXnXq q mXe ",
"e mXMXq nXMXMXq nXq nXMXnXnXmXq q q 0 q q q q MXw q q nXMXq mXe e mXq q q mXq nXmXq nXMXq nXq q q q q nXmXnXq q q q nXMXnXq mXe ",
"e mXq q q q q q q q q q q w MXq nXq MXMXq q q q q mXMXq q q mXe e mXmXnXq q q q nXw q nXq q nXq nXq MXMXMXq nXq q MXq MXMXq mXe ",
"e mXnXq q q q nXq q q MXq q q q MXnXq nXq MXMXq q MXnXq q nXmXe e mXnXnXnXnXmXMXmXnXq q nXq MXq q q q q q q q q q MXq q mXq mXe ",
"e mXMXnXmXMXq q nXnXq q q q MXq q q MXq MXMXq q MXMXq q nXq mXe e mXMXnXmXMXq q mXq q q q nXq q q MXq MXq MXnXq nXq q mXq nXmXe ",
"iXq q iXw w w aXiXiXaXaXaXiXq q iXw w q q aXiXq iXiXiXiXiXiXq q q iXq q q iXiXq q iXiXpXaXq q iXiXiXiXiXiXaXw pXiXq q q iXiXq q ",
"pXpXpXpXw w aXaXaXpXaXaXaXpXpXpXpXw w mXaXaXaXw pXiXiXpXpXpXmXMXpXpXpXpXpXpXpXmXmXpXpXaXaXaXw pXpXpXpXpXw L.L.w mXpXpXpXpXpXmXmX",
"w w w w aXL.aXL.w w aXaXaXL.aXw mXw w w aXaXaXw mXpXpXpXpXaXaXw w w aXw pXpXpXpXmXpXaXaXaXaXaXw w w L.L.L.aXL.L.w mXpXaXw w w w ",
"aXaXw w aXL.aXw w w L.aXaXL.w mXmXw w w aXaXaXw MXw aXpXaXaXaXw w w w mXmXpXpXpXmXw aXaXL.L.aXw w w L.L.L.aXaXw w mXw aXaXaXaXaX",
"aXaXpXaXaXaXL.L.L.L.aXaXaXaXL.w w L.L.L.aXaXaXw w w w w aXaXaXaXw w L.w mXw aXaXw L.aXaXL.L.w w w L.L.L.L.L.aXL.L.w L.aXaXaXaXaX",
"aXpXpXaXaXpXL.L.L.aXaXaXaXpXw w w aXL.L.aXaXaXw w w w w aXaXaXpXw aXw w pXw w L.L.L.w aXaXL.w aXL.aXL.L.L.aXaXL.L.L.L.pXaXaXaXaX",
"w pXpXaXaXpXL.L.w aXpXaXaXpXaXw pXaXaXL.aXaXaXw w w w L.L.aXL.w w pXaXw pXpXw L.L.w w w L.L.w aXw aXaXL.L.aXaXL.aXL.w pXw w w w "
};
