/* XPM */
static char *_1c49a15fb2b4a93c062ccee2e3dfe30[] = {
/* columns rows colors chars-per-pixel */
"64 64 256 2 ",
"   c black",
".  c #0000A8",
"X  c #00A800",
"o  c #00A8A8",
"O  c #A80000",
"+  c #A800A8",
"@  c #A85400",
"#  c gray66",
"$  c gray33",
"%  c #5454FC",
"&  c #54FC54",
"*  c #54FCFC",
"=  c #FC5454",
"-  c #FC54FC",
";  c #FCFC54",
":  c gray99",
">  c #ECECEC",
",  c gainsboro",
"<  c #D0D0D0",
"1  c #C0C0C0",
"2  c #B4B4B4",
"3  c gray66",
"4  c #989898",
"5  c gray55",
"6  c #7C7C7C",
"7  c gray44",
"8  c #646464",
"9  c gray33",
"0  c #484848",
"q  c gray22",
"w  c #2C2C2C",
"e  c #202020",
"r  c #FC0000",
"t  c #EC0000",
"y  c #E00000",
"u  c #D40000",
"i  c #C80000",
"p  c #BC0000",
"a  c #B00000",
"s  c #A40000",
"d  c #980000",
"f  c #880000",
"g  c #7C0000",
"h  c #700000",
"j  c #640000",
"k  c #580000",
"l  c #4C0000",
"z  c #400000",
"x  c #FCD8D8",
"c  c #FCB8B8",
"v  c #FC9C9C",
"b  c #FC7C7C",
"n  c #FC5C5C",
"m  c #FC4040",
"M  c #FC2020",
"N  c #FC0000",
"B  c #FCA85C",
"V  c #FC9840",
"C  c #FC8820",
"Z  c #FC7800",
"A  c #E46C00",
"S  c #CC6000",
"D  c #B45400",
"F  c #9C4C00",
"G  c #FCFCD8",
"H  c #FCFCB8",
"J  c #FCFC9C",
"K  c #FCFC7C",
"L  c #FCF85C",
"P  c #FCF440",
"I  c #FCF420",
"U  c #FCF400",
"Y  c #E4D800",
"T  c #CCC400",
"R  c #B4AC00",
"E  c #9C9C00",
"W  c #848400",
"Q  c #706C00",
"!  c #585400",
"~  c #404000",
"^  c #D0FC5C",
"/  c #C4FC40",
"(  c #B4FC20",
")  c #A0FC00",
"_  c #90E400",
"`  c #80CC00",
"'  c #74B400",
"]  c #609C00",
"[  c #D8FCD8",
"{  c #BCFCB8",
"}  c #9CFC9C",
"|  c #80FC7C",
" . c #60FC5C",
".. c #40FC40",
"X. c #20FC20",
"o. c #00FC00",
"O. c #00FC00",
"+. c #00EC00",
"@. c #00E000",
"#. c #00D400",
"$. c #04C800",
"%. c #04BC00",
"&. c #04B000",
"*. c #04A400",
"=. c #049800",
"-. c #048800",
";. c #047C00",
":. c #047000",
">. c #046400",
",. c #045800",
"<. c #044C00",
"1. c #044000",
"2. c #D8FCFC",
"3. c #B8FCFC",
"4. c #9CFCFC",
"5. c #7CFCF8",
"6. c #5CFCFC",
"7. c #40FCFC",
"8. c #20FCFC",
"9. c #00FCFC",
"0. c #00E4E4",
"q. c #00CCCC",
"w. c #00B4B4",
"e. c #009C9C",
"r. c #008484",
"t. c #007070",
"y. c #005858",
"u. c #004040",
"i. c #5CBCFC",
"p. c #40B0FC",
"a. c #20A8FC",
"s. c #009CFC",
"d. c #008CE4",
"f. c #007CCC",
"g. c #006CB4",
"h. c #005C9C",
"j. c #D8D8FC",
"k. c #B8BCFC",
"l. c #9C9CFC",
"z. c #7C80FC",
"x. c #5C60FC",
"c. c #4040FC",
"v. c #2024FC",
"b. c #0004FC",
"n. c #0000FC",
"m. c #0000EC",
"M. c #0000E0",
"N. c #0000D4",
"B. c #0000C8",
"V. c #0000BC",
"C. c #0000B0",
"Z. c #0000A4",
"A. c #000098",
"S. c #000088",
"D. c #00007C",
"F. c #000070",
"G. c #000064",
"H. c #000058",
"J. c #00004C",
"K. c #000040",
"L. c #282828",
"P. c #FCE034",
"I. c #FCD424",
"U. c #FCCC18",
"Y. c #FCC008",
"T. c #FCB400",
"R. c #B420FC",
"E. c #A800FC",
"W. c #9800E4",
"Q. c #8000CC",
"!. c #7400B4",
"~. c #60009C",
"^. c #500084",
"/. c #440070",
"(. c #340058",
"). c #280040",
"_. c #FCD8FC",
"`. c #FCB8FC",
"'. c #FC9CFC",
"]. c #FC7CFC",
"[. c #FC5CFC",
"{. c #FC40FC",
"}. c #FC20FC",
"|. c #FC00FC",
" X c #E000E4",
".X c #C800CC",
"XX c #B400B4",
"oX c #9C009C",
"OX c #840084",
"+X c #6C0070",
"@X c #580058",
"#X c #400040",
"$X c #FCE8DC",
"%X c #FCE0D0",
"&X c #FCD8C4",
"*X c #FCD4BC",
"=X c #FCCCB0",
"-X c #FCC4A4",
";X c #FCBC9C",
":X c #FCB890",
">X c #FCB080",
",X c #FCA470",
"<X c #FC9C60",
"1X c #F0945C",
"2X c #E88C58",
"3X c #DC8854",
"4X c #D08050",
"5X c #C87C4C",
"6X c #BC7848",
"7X c #B47044",
"8X c #A86840",
"9X c #A0643C",
"0X c #9C6038",
"qX c #905C34",
"wX c #885830",
"eX c #80502C",
"rX c #744C28",
"tX c #6C4824",
"yX c #5C4020",
"uX c #543C1C",
"iX c #483818",
"pX c #403018",
"aX c #382C14",
"sX c #28200C",
"dX c #600064",
"fX c #006464",
"gX c #006060",
"hX c #00001C",
"jX c #00002C",
"kX c #302410",
"lX c #480048",
"zX c #500050",
"xX c #000034",
"cX c gray11",
"vX c #4C4C4C",
"bX c gray36",
"nX c gray25",
"mX c gray19",
"MX c #343434",
"NX c #D8F4F4",
"BX c #B8E8E8",
"VX c #9CDCDC",
"CX c #74C8C8",
"ZX c #48C0C0",
"AX c #20B4B4",
"SX c #20B0B0",
"DX c #00A4A4",
"FX c #009898",
"GX c #008C8C",
"HX c #008484",
"JX c #007C7C",
"KX c #007878",
"LX c #007474",
"PX c #007070",
"IX c #006C6C",
"UX c #980088",
/* pixels */
"sXaXsXsXsXsXsXsXsXaXsX      pX  cX      sXsXaXmXnX6 9XvXsXw q pXw vXcX                    sXcX    sXsXsXsXsXsXcX  e mXcXsX  e cX",
"  sXsXsXsX  sXsX  sXe     aXuXsX          sXnXrXw pXw mXw sXsXnXmXe                   sX  cXcX  sXcXsXsXcXcX      cX  cX    e e ",
"sXsXsXsXsXsXsXaXsXsXsX    sXsX        sXcXbXwXbXmXq vXmXw cXe aXmXcXcX                sXcXcX    e     sX                    cXmX",
"sXsX    sXsXsXaXsX  sX  sXsXsX    q nXe mX0 8 0 w bXbXmXmXaX0 bXcX                    cXcXcXcXcXsXcXcXcX                      cX",
"sXsXsXaXsXsXsXsX  sXsXpXpXsXsXsXpXpXsXsXsXtXvXpXmX0 vXe 8 0X8 e                 e cXcXcXw cXcX  sXsXe                     cX  cX",
"  sXsXaXsX    sX    tXuXyXpXpXsXsXsXsXcXsXmX0 q q w w e 6 6 bXcX              sXsX  cXcXcXcXcXsXcXcX            cX  e sXw sXe cX",
"  sXsXpX    sX    mXuXbXtXpXsX    e sXsXnX0 mXvXvXpXq nXvX8 sXsX            cXsXsXcXcX  cX  cXe e sX              cXcXsXe e cXsX",
"sXsXsXsX        sXuXpXaXsXsX      sXaXbX0 vXvX6 6 6 0 w e e         cXcX  cX  cXcX      cXcXe cXe cX            cX  cX  w cXcXe ",
"pXwXsXsX        sXpXsXsXsXsXsX  sXpXnX6 vX8 7X:X6 8 q e cX                            cXsXcXcXsXsX              cXcX    sXcXe e ",
"0 uXsX        sXsXsXe sXsXsXsXw mX6 8 rXvX6 4 uX8 uXq mX      cX                      sX        sXcX              cX    sXcXsXcX",
"nXaX    sXsXsX  sXsXsXsXsXsXsXsXsXbX8 8 8 6 8 6 bX8 bXw       e cX                sX            cXe           cXsXe cXsXcX    cX",
"pXsXsX      sX      sXsXsXe sXcXw nX0 aXbX6 bXnXnXnXw       cXw cX    cXcX        sX        cXsXcXcX        cX  sXcXsXsXcXsXe e ",
"sXsX                  sX      e q nXmXvX0 bXcXe e e cXcX  cXw cX    cXcX          sX      sXcXcX                cXcXcXcX    cX  ",
"sXsX          sXsX  sXsXsXsXsXsXe sXnXvXvXvXcXcXe       cXsXcX    cX    cXcX      mX          cXe   cXcXcX      cXcXcXcXcX      ",
"e sX          sXsX  cXw e e cXsXuXq sXw e cXcXcXcX                    sX      cXcXsX    cX  e cXw cXe cXe cX    cXcXcXcX  cX    ",
"sX              sXsXsXsXw sXe 0 uXaXw e cXcXcXcXcX                  e cXcXcXcXsXcX        cXcXw mXcXcXnXmXcX  cXe sXe cXsXe sXcX",
"    w sXsXsXsXsXsXaXsXsXsXsXe sXw cXe e sXsXq cX                  cXw sXsX  cXcXe cX    cXcXcXmXsXmXsXe       cXcXe mXmXcXcX  cX",
"cX  sXuXpXsXsXsXsXaXsXsX  sXsXsXsXe w vX0 e mXcX                e   e sXsX  cXe sX      cXcXcXnXmXw cX        cXsXw w   cXcXsXmX",
"sXsXuXpXpXsXsXuXpXw sX        sXmXvXvXbXnX0 0 cX  cX            cXcX                  sXcXcX  sXq e e cX      cXq e cXcX  cXcXsX",
"aXuXtXtXuXsXsXpXpX          sXsXpX8 8 8 q 0 nXcX          e cXsXcXsX  cXcX                    cXq cX          cXe cXcX  cXcXcXsX",
"sXaXpXsXsXsXsX  sX        sXsXq 0 vX0 6 w w sX          cXe e cXe w w w cX                    e w             cXe cXcXcXcXcXcXcX",
"sXpXpXsXsX    sX            sXaX0 0 0 q mXw             sXsXcXsXsXq q mXsXcXsX  cX  cX        e sXcX        cXcXcXcXcX  cXcXcXe ",
"aXsXsX                      sXe sX  cXsXe                 sX    e q nXaXsXsXsXe e e cXcXcX    cXw e           cXsX  cXcXcXe e cX",
"pXsX                  cX    sX    cXsXw cX              cXcX    nXq vXsXcXsXe w     e cXsXw w nX0 cX                cXcXsXe sXcX",
"sX                            cXcXe w nX              sXcXcXcXe w 0 w e mXq sX  cXcX  cXcXcXw w e                 cXcXcXe sXmXw ",
"sX                cX        sXw w cXe   e cXe             cXe e sXmXw cXnXq cX  cX  cX  e cX  cXw cX  cX          e cXcXe mXmXq ",
"                  cX    e cXw nXsXcXq w cXcX          cX  cXsXsXsXw cXe e w cXcX  cXe sXq       cXcX            cX  cXcXe 0 w rX",
"                        cXsXcXe e w w mXw             e w 0 w nXe vXw q nXe   cXcXe e 6 sX  cXmXcXe cX            cXw w 0 mXmXq ",
"              sXsX  sX  sXcXcXe w q e e e cX          e pXnXmXmXtXvXw q q cXcXcXsXe 0 q   cXe e                   e e sXmXq nX0 ",
"                cXcX    e e w mXw e   cXcX          cXsXq 0 sXvX0 vXsXsXsXsXe cXcXsXe cXcX  sXe     cX          e e e e w vXvXe ",
"                cXe cXcXe w sXe e cX      cX        cXsXq vXaXnX0 sXe sXsXe sXmXw cXcX    cXe             cX  cX  cXe w mXbXq e ",
"  sX              cXcXcXe cXcXcXcX        cXe         w q 8 mXnX0 0 0 0 w uXw e e   cXcX    cX                    e sXnX0 uX0 nX",
"sXsX          cXcXcXcXcXcXcXcX          cXcXe cX    sXw w mXsXnXmXw mXmXq vXmXsXcXcXcXcXcX  cX  cX        sX    sXw w mXq e q nX",
"sX          sXcXsXcX      cX        cX    w mXcX    cXe e sXq 8 bXe e vXnXe sXcXcX          e   sXcX        sXe e sXe sXnXw q q ",
"          cX    sXcXcX            cX            sXsXsXw mXnX8 4 4 0 0 pXsXcXsX          cXcXw w sXe cX      cXe q q e q q sXmXsX",
"        sX  sXw e w cX                              e pXnXvX8 6 vXmXmXpXsXe cX      cX    cXnX0 mXmXe cX    cXe pXsXe sXmXe e sX",
"            sXcXe cXcX                  cXcX        e q w e nXmXq mXe e cX  cX      cXcX  e e e q e cX      mXe w cXsXe mXsXsXcX",
"  sX  sX    cXpXnXe cX  cXcX          cXe sXcXcX  cXsXpXq pX0 0 w mXcXcXcXcXcX    cXcXcXcXe vXvXvXe w cX  cXq w sXsXsXsXsXw e sX",
"      sX    cXsXmXcX  cXcXw sX    cXsXsXcXe     cXw w pXpX0 sX0 sXsXcX  e cX  e sXsXmXsXcXcXcX0 mXmXsXsXcXsXe sXsXsXpXsXsXe sXsX",
"        sXsXsXsXe mXe cXsXcXcXe cXcXcXcXe       e mXw nXnX0 e mXmXe sX  cXcXcXw sXcXcXw e cX  w w nXw e e cXsXsXsXsXsXsXsX  sX  ",
"        e 0 w w sXmXe cXcX    cX  cXe cXw e e e mXsXq aXw mXq q e cX    sXw e sXw   e w     cXq mXnXvXw cX  e w e sXsX          ",
"    w w sXw e sXmXcXe   cXcXcX    cXcXe cXcXw nXpXnXsXsXsXmXq w cXsX  cXe cXe q mXe cX      e mXnXnXe cX    cXcXsXe sX          ",
"  w mX  sXw cXcX          cXcXcXmXe sX  cXcX0 mXq e sXq pXq sXw sXcX      cXw sXcXe         w w 0 e       cXcXcXcXcX            ",
"sX  sXsXcXe e cX      cX  cXmXe cXe     e w 8 vXsXsXq sXcXsXsXe sX  cXsX  e sXcXcX  e     nXmXw w         cXcXsXsXcX            ",
"    sX  sXcX        cX  cXe mXmXq e cXcXw 0 0 uX  sXsXnXsXcXsXsX      sXcXsXcX  cX  cX  cXmXw w cXcX        cX    cX            ",
"      sXcX    cXcXcX  cXe mXe w e   e sXsXvX8 sXsXw w aXw sXcXsX            cXcX    cXe   mX              cX                    ",
"    cXcXcXcXcXcXcXe cXcXcXe     sXsXnXsXw q vXe w aXe sXw w sXcX          cXcX  cXsXe   cX                                sXsXsX",
"    sXw e cXe cX  cX            cXe aXmXe w cXcXsXpXsXw sXsXsXcX          cX    sXcXsX  cXcXe cX    w cX              sXsXsXsXsX",
"sXsXcXcX  mXe w   cX  cXe cX  mXmXmXw sXcXcXcXcXsXsXw sXcX    cXcX              sXsXsXcXsXe cXsX  cXsXsXcXsXcX      sXsXsXcXaXsX",
"  cXw mX0 vXnXmXe e cXcXw cXsXq mXq cXw e cXcXe cXe         sXsXsX        cX    sXsXsXcXcXcXcXcX    cXcXe sXcX        sXcXcXsXsX",
"cXsXw q q e e cXcXmXcXcXcXw sX0 q q cXcXcXcXe sXcX  sX                sXsXcXw sXsXsXcXcXcXcX        cXe e cXsX      cXcXcXe sXcX",
"  cXcXsX0 w cX  cXe cXe nXe e q 0 uXw e cXe   sXsX                sXsXsXe sXsX    sXsXsXcX        cXcXw e e cXsX    cXw e cXe cX",
"  cXe q w cX  e w e nXnXmXcXcXw bXvXcXcXcXcXe cX              cXcXsXsXw sX      sXsXsXsX  cX      cXcXw sXcXsXsX    cXw e sXcXsX",
"sXe cXw cXcXcXq sXe w e e e e q vXe e cXcXcXsX      sXcX      w pXsXsXsXcX    cXcXe sXcXsXsXcX  e e mXw e w e sXcX  cXnXsXcXw w ",
"  mXe cX    cXe w cXcXcXe cXe e e cXcXcX  cX      sXsXsXsXsXsXmXsXsXsXsX        cX  sX      cX  e     sXw w w sXsX  sXcX  e nXnX",
"e cX            cXcXcXcXcXw mXcXe cXcX          sXsXcXq uXaXsXsX0 e sXsX        sXsXsXsXcXe cXcXsXcX    cXpXe cXcXcX    sXe sXsX",
"              cXe     e e cX      cX  cXcXcX  sXsXuXvXuXq aXsXsXsXsXsX  sXsX      sX  sXcXcX  cX      cXaXe aXsXsX    cXsXsXsXcX",
"            e e e   cXe cXe w   cXcXcXcXe   cXe e w w w nXq sXsXsXsXsXsX        sX        sXcX        cXw mXsXsX        sX  sXcX",
"            nXnXcXcXcXw sXw sXsXcXcXcXw cX  e w sXw sXcXsXsXsX  sX  cXcXsX              e e cX      sXe sXsXsX        cXcXcX    ",
"          cXe   cXcXcXcXcXcXe cXcXe e cXcXcXe q sXcXsXsXsXe                     sXsXsXsXsXcXsX    cXsXsXe         sX  cX        ",
"        cX        cXcXcXcXcXcXcXsXsXe sXe e e cXcXe mXe cXsX              cX  sXpXsXsXcXsXsX  cX  sXe e sX                      ",
"cX      cXcX    cXcXcXcXcXcX  cXcXe cXcXe mXe cXpXnXnXcX                    sXsXsXsX  cXsXsXsXe   e sX                          ",
"sX                sXcXcXe cX    cXcX  cXcXsXw cXsXsXsX                e sXsXsXsX      sXsXsXsXcX                                ",
"cX                    e cXe cXsXmXe         cXsX  cXcX  cXsX        sXpXsXe sXsX        sXcXe cXsX  e       cXsX        cXcX  cX"
};
