/* XPM */
static char *_9fa977d341b40b7fe25784e186ba422[] = {
/* columns rows colors chars-per-pixel */
"64 64 256 2 ",
"   c black",
".  c #0000A8",
"X  c #00A800",
"o  c #00A8A8",
"O  c #A80000",
"+  c #A800A8",
"@  c #A85400",
"#  c gray66",
"$  c gray33",
"%  c #5454FC",
"&  c #54FC54",
"*  c #54FCFC",
"=  c #FC5454",
"-  c #FC54FC",
";  c #FCFC54",
":  c gray99",
">  c #ECECEC",
",  c gainsboro",
"<  c #D0D0D0",
"1  c #C0C0C0",
"2  c #B4B4B4",
"3  c gray66",
"4  c #989898",
"5  c gray55",
"6  c #7C7C7C",
"7  c gray44",
"8  c #646464",
"9  c gray33",
"0  c #484848",
"q  c gray22",
"w  c #2C2C2C",
"e  c #202020",
"r  c #FC0000",
"t  c #EC0000",
"y  c #E00000",
"u  c #D40000",
"i  c #C80000",
"p  c #BC0000",
"a  c #B00000",
"s  c #A40000",
"d  c #980000",
"f  c #880000",
"g  c #7C0000",
"h  c #700000",
"j  c #640000",
"k  c #580000",
"l  c #4C0000",
"z  c #400000",
"x  c #FCD8D8",
"c  c #FCB8B8",
"v  c #FC9C9C",
"b  c #FC7C7C",
"n  c #FC5C5C",
"m  c #FC4040",
"M  c #FC2020",
"N  c #FC0000",
"B  c #FCA85C",
"V  c #FC9840",
"C  c #FC8820",
"Z  c #FC7800",
"A  c #E46C00",
"S  c #CC6000",
"D  c #B45400",
"F  c #9C4C00",
"G  c #FCFCD8",
"H  c #FCFCB8",
"J  c #FCFC9C",
"K  c #FCFC7C",
"L  c #FCF85C",
"P  c #FCF440",
"I  c #FCF420",
"U  c #FCF400",
"Y  c #E4D800",
"T  c #CCC400",
"R  c #B4AC00",
"E  c #9C9C00",
"W  c #848400",
"Q  c #706C00",
"!  c #585400",
"~  c #404000",
"^  c #D0FC5C",
"/  c #C4FC40",
"(  c #B4FC20",
")  c #A0FC00",
"_  c #90E400",
"`  c #80CC00",
"'  c #74B400",
"]  c #609C00",
"[  c #D8FCD8",
"{  c #BCFCB8",
"}  c #9CFC9C",
"|  c #80FC7C",
" . c #60FC5C",
".. c #40FC40",
"X. c #20FC20",
"o. c #00FC00",
"O. c #00FC00",
"+. c #00EC00",
"@. c #00E000",
"#. c #00D400",
"$. c #04C800",
"%. c #04BC00",
"&. c #04B000",
"*. c #04A400",
"=. c #049800",
"-. c #048800",
";. c #047C00",
":. c #047000",
">. c #046400",
",. c #045800",
"<. c #044C00",
"1. c #044000",
"2. c #D8FCFC",
"3. c #B8FCFC",
"4. c #9CFCFC",
"5. c #7CFCF8",
"6. c #5CFCFC",
"7. c #40FCFC",
"8. c #20FCFC",
"9. c #00FCFC",
"0. c #00E4E4",
"q. c #00CCCC",
"w. c #00B4B4",
"e. c #009C9C",
"r. c #008484",
"t. c #007070",
"y. c #005858",
"u. c #004040",
"i. c #5CBCFC",
"p. c #40B0FC",
"a. c #20A8FC",
"s. c #009CFC",
"d. c #008CE4",
"f. c #007CCC",
"g. c #006CB4",
"h. c #005C9C",
"j. c #D8D8FC",
"k. c #B8BCFC",
"l. c #9C9CFC",
"z. c #7C80FC",
"x. c #5C60FC",
"c. c #4040FC",
"v. c #2024FC",
"b. c #0004FC",
"n. c #0000FC",
"m. c #0000EC",
"M. c #0000E0",
"N. c #0000D4",
"B. c #0000C8",
"V. c #0000BC",
"C. c #0000B0",
"Z. c #0000A4",
"A. c #000098",
"S. c #000088",
"D. c #00007C",
"F. c #000070",
"G. c #000064",
"H. c #000058",
"J. c #00004C",
"K. c #000040",
"L. c #282828",
"P. c #FCE034",
"I. c #FCD424",
"U. c #FCCC18",
"Y. c #FCC008",
"T. c #FCB400",
"R. c #B420FC",
"E. c #A800FC",
"W. c #9800E4",
"Q. c #8000CC",
"!. c #7400B4",
"~. c #60009C",
"^. c #500084",
"/. c #440070",
"(. c #340058",
"). c #280040",
"_. c #FCD8FC",
"`. c #FCB8FC",
"'. c #FC9CFC",
"]. c #FC7CFC",
"[. c #FC5CFC",
"{. c #FC40FC",
"}. c #FC20FC",
"|. c #FC00FC",
" X c #E000E4",
".X c #C800CC",
"XX c #B400B4",
"oX c #9C009C",
"OX c #840084",
"+X c #6C0070",
"@X c #580058",
"#X c #400040",
"$X c #FCE8DC",
"%X c #FCE0D0",
"&X c #FCD8C4",
"*X c #FCD4BC",
"=X c #FCCCB0",
"-X c #FCC4A4",
";X c #FCBC9C",
":X c #FCB890",
">X c #FCB080",
",X c #FCA470",
"<X c #FC9C60",
"1X c #F0945C",
"2X c #E88C58",
"3X c #DC8854",
"4X c #D08050",
"5X c #C87C4C",
"6X c #BC7848",
"7X c #B47044",
"8X c #A86840",
"9X c #A0643C",
"0X c #9C6038",
"qX c #905C34",
"wX c #885830",
"eX c #80502C",
"rX c #744C28",
"tX c #6C4824",
"yX c #5C4020",
"uX c #543C1C",
"iX c #483818",
"pX c #403018",
"aX c #382C14",
"sX c #28200C",
"dX c #600064",
"fX c #006464",
"gX c #006060",
"hX c #00001C",
"jX c #00002C",
"kX c #302410",
"lX c #480048",
"zX c #500050",
"xX c #000034",
"cX c gray11",
"vX c #4C4C4C",
"bX c gray36",
"nX c gray25",
"mX c gray19",
"MX c #343434",
"NX c #D8F4F4",
"BX c #B8E8E8",
"VX c #9CDCDC",
"CX c #74C8C8",
"ZX c #48C0C0",
"AX c #20B4B4",
"SX c #20B0B0",
"DX c #00A4A4",
"FX c #009898",
"GX c #008C8C",
"HX c #008484",
"JX c #007C7C",
"KX c #007878",
"LX c #007474",
"PX c #007070",
"IX c #006C6C",
"UX c #980088",
/* pixels */
"pXL.pXnXnXMXpXpXq vXyXMXpXMXpXL.pXMXnXq nXyXnXL.e cXe pXL.pXnXnXq nXnXnXq $ $ $ 0 $ yXq nXnXq nX$ $ 0 $ $ $ yXyX0 $ $ $ vXq pXnX",
"e nXnXyXvXnXnXq nX0 $ nXq 0 yXnXnXnXyXvX0 0 nXL.e kXw pXL.nXyXnXq nXnXq yX8 8 vX$ $ 0 vXnXMXMXnX0 yX0 0 $ $ 0 vX$ vX$ vXyXpXw q ",
"nXnX$ vXuXnXnXq nX0 $ vXq yX$ 0 yXvX0 vX0 vXpXkXkXw w nXnX0 vXnXnX0 yX0 $ 8 8 $ $ $ yXnXq q yX$ $ 0 0 vX0 yXnXnXyXnXq q nXnXnX0 ",
"0 0 0 0 $ $ vX$ $ 8 8 bXq nX$ vXnXyXnXq nXnXL.w w w uX0 bX$ nXpXw q 0 bX8 7 7 $ $ $ 0 yXyX$ $ $ 0 vXbX0 yXnXMXMXpXMXpXnXnXnXnX0 ",
"nX0 bX$ $ $ 8 $ $ 8 8 $ q q nXnXq nXq nXnXnXpXkXL.q q $ 7 $ MXL.pXyX$ bX7 7 8 $ $ $ $ 0 $ 7 $ 0 0 bXvXvXnXMXpXnXq nXq nXMXpXq nX",
"nX0 bXbX8 8 8 8 8 8 bXvXq nXnXnXL.pXaXnXnXpXkXe kXq nX$ $ vXaXpXnX$ 8 7 8 $ 0 0 $ $ $ bXbX0 yX0 vX0 bX0 nXpXpXpXnXq nXnXMXq nXnX",
"$ bX8 8 8 $ nX0 $ $ q w w kXL.L.pXMXnXMXpXL.kXkXL.vX0 $ $ 0 q nX0 8 8 8 $ q nX0 $ $ bX$ yXq nX$ yXq nXMXpXkXkXpXq vXyXnXnX0 $ $ ",
"$ bX8 8 vXyXyX$ bXq L.aXcXcXe pXnXyXvXq pXpXpXpXq $ 0 $ $ $ yXyX$ bXbX0 q nX0 $ $ 0 q q pXMXyX$ nXL.L.pXL.e kXpXnXyXnXnXMXq 0 vX",
"vXvXvX$ $ 0 $ bX$ q pXkXe e L.nXvX$ vXq MXnXyXyXyX$ 8 8 8 8 yXnXnXq q nXnX0 $ $ 0 0 nXq MXnX$ $ MXL.pXpXpXL.pXnX0 vXq pXMXnX0 0 ",
"0 nXnXvX$ $ bX$ $ nXpXkXkXpXnXvX0 $ yXq nXbX$ $ $ $ 8 8 7 bXq L.w nXnXq yX$ bX$ bX$ 0 vXyX0 $ vXpXL.pXpXMXnXnX$ bXyXpXpXnXnX0 vX",
"nXnXnX0 $ nXvX0 vXnXnXpXL.pXnX0 $ bXq nXyX$ $ $ $ 0 vX$ 8 0 pXL.pXpXMXnX$ bXbX8 8 8 $ bX0 $ 0 nXpXpXpXpXnXyX0 $ $ nXpXMXnXvX$ vX",
"0 vX$ $ bX0 bX$ q q pXkXL.nXq $ 8 $ q q yX$ bX$ $ uXvX$ $ nXpXL.pXpXpXyX$ $ bXbX8 $ $ $ $ $ nXMXpXL.pXpXyXvX$ yXq L.L.nX0 $ $ nX",
"vX$ bX8 8 $ $ yXnXnXpXL.pXnXnX$ 7 $ yXnX0 bX$ $ 0 yX0 8 bXq kXkXpXpXpXnX$ bXbXbX$ 0 $ 0 yXyXnXpXpXL.pXq vX0 0 yXpXL.pXyX$ bX$ vX",
"nXvX$ $ $ vXnXpXMXnXnXMXnXq q $ bX$ $ 0 $ bX$ 0 $ $ $ bXvXL.kXw kXL.pXq $ $ bXvX$ 0 $ $ yXnXw pXpXpXpXnXvXnXyXL.L.pXyX$ $ $ yXpX",
"q nX0 $ vXMXL.L.pXMXq nXq nXyX$ 8 $ yXnXvX0 0 $ bX0 yXyXMXkXkXpXL.w L.nX$ 8 $ $ 0 vXvX$ nXMXpXpXL.pXq vXnXaXpXpXpXyX$ 8 8 $ q L.",
"nXnXnXnXpXL.kXw w nXnXnXnXyX$ 8 bX0 MXpXMXq nX0 $ nXq nXpXL.pXnXMXpXq $ 8 8 bXyXq q vX0 nXpXpXL.pXMXnXnXq pXpXMXnX$ 8 8 8 $ q nX",
"nXnX0 pXL.pXpXMXnX0 $ 0 nXnXyXvX0 nXMXpXMXnX0 $ $ q nXnXL.kXpXq 0 q yX$ 7 8 $ q MXnX0 nXpXpXkXkXpXnXnXnXnXpXMXnXyXvX8 8 $ $ yXyX",
"0 $ $ q pXnXyXyX$ bX$ vXq MXpXw nX0 nXnXnX0 $ $ vXL.L.pXL.pXyXvXyXyX$ $ 8 $ 0 q nXvXvXMXL.kXkXpXpXnX0 yXnXq nX0 0 8 8 8 $ $ 0 nX",
"nX$ $ 0 0 $ $ $ $ $ vXq MXnXnXq vXbX0 yX0 $ 8 bXq pXpXpXq vXbX$ q nXvX0 $ bX$ yX$ bX$ MXpXpXpXpXq 0 bX$ nXpXq $ 8 7 7 8 vXq mXmX",
"0 vX$ vX0 $ $ yXq nXq nXq yXvXvX$ $ 0 0 $ $ $ $ L.pXpXq vXyX0 nXq yX$ $ 8 bX$ yX$ bXq pXpXq nXyXvX$ $ nXaXpXyX$ 7 7 8 $ MXpXMXnX",
"vXvX0 nXnXvXyXMXMXnX0 q q $ bX0 bX$ vXvX$ bX$ nXL.pXnXvXyXq nX0 $ $ 8 $ 8 7 $ w vXvXq pXq vX$ $ 0 $ nXw pXnX$ 8 8 $ 0 nXpXpXq nX",
"nX0 q L.pXq nXq nXyXvXq vX$ 0 q q nXq q vX0 yXpXL.q $ $ yXyX$ bX$ bX8 bX8 7 yXaX$ uXnXq nX0 $ $ vX0 w pXMXyX$ $ $ q q MXq MXnXnX",
"q q pXpXMX0 nXnXq nXyXvX$ $ nXq nXMXMXnX0 yXvXMXq vX$ $ 0 $ bX$ 0 0 $ 7 8 $ MXL.q nXq nX0 8 7 $ vXaXL.pXnX$ $ 0 $ q nXnXnXnXnXyX",
"q pXnXnXq nXq q nXnXyX0 $ vXq nXq MXnXyXvXnXq q 0 0 vXvX0 vX$ yX0 $ 8 $ yXq pXL.nXnXyX$ 8 8 8 $ MXL.pXnXyX$ 0 $ $ yXnXnXyXyXnX0 ",
"nXq nXnXnXq nXnXyXyXyXnXnXq MXnXnXnXyX$ nXaXpXnXq nXq q nXq q q $ 8 8 0 q pXpXpXMXyX$ $ 8 8 $ 0 L.e kXMXvXyXnXyXvXnXnXq vXvXq q ",
"yXyXyXyXyXnXyX0 $ yXyXnXaXpXnXq pXq $ vXq pXMXnXpXMXq 0 yXnXMXq $ $ $ yXnXnXnXnXq vX$ bX$ nXaXpXcXe kXpXq nXq yXvXq q nXyXnXnXnX",
"nXvX$ $ vX0 $ $ $ 0 vXq pXnXvXnXq nX$ yXq nXnXq q nXyX$ 0 vXnX0 8 8 $ nXnXnXnXq nXnXnXnXMXL.e kXe kXpXMXnXq nXnXnXL.q q nXq nXnX",
"0 vXvX$ $ $ $ 0 0 $ $ q yX$ $ q nXyX$ yXMXq 0 0 vX$ $ $ 0 vX0 $ 8 8 $ q pXpXL.pXL.L.pXMXpXkXkXpXpXpXMXnXnXnXpXpXL.e L.pXMXnXyXnX",
"yX0 vX$ 0 yXyX0 $ $ $ 0 $ bXyXpXMXyX$ 0 pXMXyX$ $ $ $ nXnXq yX$ $ bXq pXpXpXpXpXkXkXpXnXq L.L.pXnXq nXnXq pXL.pXkXkXpXpXMXyXvXyX",
"vX0 0 0 nXnXyX$ $ 7 8 $ $ $ q pXq vXyXpXaXnX0 $ $ $ nXL.pXnXnX$ 0 $ q pXpXnXL.w kXpXuXnXL.L.q nXvXnXvXnXnXL.pXuXpXpXnXyXtX$ $ vX",
"0 0 0 0 q q nX0 $ $ $ q nX0 MXpXnXnXnXw nXyX$ $ $ vXpXL.pXnXq 0 $ yXq L.pXpXkXcXe kXL.pXL.pXMXnXnXpXw pXMXpXpXpXpXq $ bX$ bX$ 0 ",
"nXnX0 0 nXnXvX$ $ yXnXMXq nXMXpXpXpXnXq nXyX0 $ $ q L.pXnXyX0 $ $ nXL.e L.pXkXe e kXpXpXL.pXpXw cXkXpXMXnXpXpXMXMXnX$ $ bX$ vX0 ",
"q q nXnX0 vX8 bX0 q nXq nXnXnXpXpXL.pXnXnXnXvXyXnXMXpXyX$ $ 8 8 $ MXkXe w pXkXe kXpXnXnXnX0 pXcXe kXpXnXnXq nXvXnXyX0 bX$ $ vXnX",
"MXq q nXnX$ $ 0 yXyXnXq nXyXnXpXL.w pXq q pXw nXq nXyX$ 8 7 8 $ yXpXL.q L.w kXkXpXMXnX0 vXMXkXe kXpXpXq nXnXq nX0 $ vX8 $ $ 0 q ",
"q q q q MXnXyXyX0 $ yXyX$ 0 vXq pXL.nXvXnXpXpXnXyX$ $ $ $ $ q q nXpXkXe e e e L.nXnXvXvXq kXkXL.pXnXyXvXvXq pXq $ $ $ $ $ 0 q MX",
"nXnXyXnXMXnXyXvX$ $ 0 vX$ $ $ q pXq $ bXyXq yX$ $ $ $ yXpXaXnXnXq pXe cXcXe kXpXnXnXpXw pXL.pXnXvXbX$ $ yXq nXnX$ $ yXyXyXnXq q ",
"nX0 yXnXq nXyX0 0 vXvXnXyX$ vXpXq vX$ bXyXq bX7 $ $ $ MXL.pXq nXnXpXcXcXe pXpXnXq pXL.pXpXpXpXyXbX$ yXyXyXyXyXyX0 vXq nXnXnXnXnX",
"0 vXvXnXq nX0 vXnXq pXL.q vXyXw nXq q nXq vX$ $ $ $ yXMXMXnX$ $ nXMXw kXpXpXnXq nXMXpXnXnXnXq nX0 nXq nX0 $ $ vXnXq pXpXL.MXnXnX",
"vX$ vXyXnX$ $ q pXpXL.pXnX0 $ vXnXnXMXMXnXyXvXnXuXvXyXnXvX$ 8 $ nXnXpXL.w L.q yX$ yXnXnXyXyXyXvXyXyX$ 0 bX8 $ nXw nXMXpXpXnXyXyX",
"vX$ vXvX0 $ $ nXq nXMXnX$ bX$ q pXq nXq nX0 vXq vX0 yXnX0 $ 8 $ q q nXpXaXnXvXbX$ $ q q vX0 $ $ yX0 bX$ 8 8 $ q nXnXnXnXyX$ $ 0 ",
"0 $ 0 q pXq nXq nXq nX0 bX$ yXpXpXnXnXnXnX0 $ yX$ bXyXq 0 $ $ 0 nXvXbX0 nXnX0 $ bX$ q nX0 bX8 $ yXvX$ $ 8 8 0 pXpXnXvX0 vX$ yXnX",
"nXnXL.cXL.nXq pXq nXvX$ $ 0 pXL.pXq nXMXMXnX0 0 $ 8 0 uX$ 8 $ vXq MXnXq pXaXnX0 0 $ yX0 bX$ $ $ q 0 $ $ 8 $ nXL.L.nX0 $ vXvX0 0 ",
"nXq w iXnXyXnXq nXyX0 vXyXnXpXL.nXyXvXq pXq $ $ 8 bX0 bX8 7 $ 0 pXL.pXpXpXpXq vX$ $ yXyXyX0 vX$ 0 vXbX$ $ vXaXkXpXq $ $ $ vXvXvX",
"nXMXpX0 $ vXq nXyX0 vXq MXnXq nXyX$ 0 MXpXnX8 8 8 0 nX0 $ $ $ vXL.pXnXnXnXq nXvX0 0 0 nXq 0 8 8 $ bX$ $ $ $ pXL.MXvX$ bX$ $ $ vX",
"q MXq nX0 yXnXyX$ vXyXMXMXyXvXnXnX$ vXnXpXyXbX$ $ q q nXyX0 $ q L.pXnX$ bXnXnXyX0 $ 8 vX$ $ 8 8 8 $ $ $ bXbXw L.nX$ $ $ $ bX0 0 ",
"pXMXnXq MXpXMXnXvX0 nXnXnX$ $ q q yXyXpXL.nX$ $ $ q nXnXyX0 vXpXL.pXnX$ $ q q yX$ 8 8 bX$ $ 8 bX$ vXq vX0 0 q pXyX$ 8 7 7 vXnXq ",
"e e L.pXw L.pXnXq nXnXq yX$ $ q nXvXvXMXpX$ bX$ 0 nXq nX0 vXvXq pXpXnX0 $ q yX$ 0 $ $ $ 0 yXnXq q q pXq 0 $ vX0 $ 8 8 7 bXq MXw ",
"pXpXpXiXw L.nXq MXnXq q yX$ yXnXnXnXnXpXq vX$ 0 vXvXyXvXvXyXnXq pXq $ $ $ vXvX$ $ $ $ $ vXq pXpXMXnXq nX$ $ $ $ $ $ 8 bXq L.pXq ",
"yX0 nXpXL.nXnXnXnXvXyX0 $ vXq pXpXpXpXpXpXnXyXq nXyXyXvXyXpXq yXq nX$ bX$ nXq q nXyXyXnXq pXpXMXnXyXnXyX0 $ $ $ yXvX$ vXnXpXpXq ",
"0 nXq pXMXyXnXq nXyXyXnXnXq pXpXpXpXpXpXpXq 0 nXnXnXq q nXL.pXnXMXq $ $ MXL.pXnXnXq q nXnXpXpXnXq vXyX0 bX$ vXnXL.w nXnXMXMXq 0 ",
"0 q q q vX$ nXnXnXyXnXpXpXw kXL.pXpXpXnXq 0 0 yX0 vXq nXpXpXnXnXq nXyXnXL.kXpXnXq nXnXnXMXpXL.pXnXvXnXnXyXvXq L.kXpXq nXq nX0 0 ",
"q nX0 $ 7 vXq nXyXyXnXL.kXcXL.pXMXnXMXq nX$ 0 vXvXyXnXpXkXL.pXq nXnXnXpXw L.pXq 0 yXyXnXpXe w L.q nXaXpXq q pXe kXpXnXyXyXvX$ 0 ",
"nXvX$ 8 $ q nXnXyX$ yXpXpXpXnXvX0 vXq nXnXq q nXnXnXL.L.kXpXq vXnXq nXpXcXw MXnX0 0 $ nXpXw w nXyXnXpXMXnXnXpXcXL.nXyXvX$ $ 0 nX",
"uXyX$ bX0 nXnXnX0 $ vXq MXnXyX$ $ $ nX0 nXq nXnXq pXpXpXq vX$ bXq w pXL.w MXnX0 $ bX$ nXpXL.nX$ bX$ nXyXvXnXpXL.q yX$ 0 0 0 uXuX",
"uXyX0 q MXnXq nX$ $ 0 yXyX$ 0 $ 8 $ q nXq q $ $ nXq nXq vX$ bX$ nXnXvXnXq yX$ bX$ 0 nXq pXq $ bX$ $ 0 vX0 yXnXpXq $ $ $ 0 yXq q ",
"nXnXiXpXpXpXaXnX0 $ 0 $ $ $ $ 8 bXnXpXw nX0 8 8 0 nXnXyX$ yXq yXq q nXyXyX$ bX$ uXnX0 vXnXnXvXq nXq nX0 $ 0 nXq vX$ $ 0 vXnXnXnX",
"0 q w pXq nXnXyXyX0 0 $ $ $ $ $ nXaXpXpXyX$ 8 8 0 yX0 $ $ q yX$ vXq yX$ $ $ $ $ 0 $ $ 0 nXnXq pXMXnXyXvX$ $ $ yXyXyXyX0 $ vX0 0 ",
"nXpXw q vX$ $ $ 0 vX$ $ 0 0 0 nXq pXMXnX$ $ 8 $ 0 vX$ $ bX0 $ 8 $ $ $ $ 8 $ $ bX$ $ $ yXpXL.pXpXpXq nXyXyXvX$ yXyXyX0 $ 8 7 bX0 ",
"iXpXMXnXvX$ $ vXnXyX$ 0 yX0 $ yXnXnXyX$ $ 8 7 bXyX0 $ bX$ $ $ 8 8 $ 8 8 8 $ $ $ 0 0 $ 0 w pXnXq nXnXnXnXq yX0 0 vX0 vX$ $ $ vX0 ",
"pXmXq vX$ $ yXq w MX0 yX0 $ bX0 yX0 $ $ $ 8 7 0 q nXyX0 $ $ $ 8 bXbX$ $ bX$ $ $ 0 nXnXq MXnXvXyXyXnXMXq 0 $ $ $ 0 vXyXyXvXvXvXvX",
"q q yXvX$ vX0 nXpXMX0 $ $ $ yXyX0 $ 0 $ bX$ $ q MXnX0 $ bXvX$ 8 7 $ yXnXq nXyXnXpXw pXpXnXnXvXvXyXnXMXq $ $ 8 $ q q nXnX$ $ nXiX",
"nXnXyXvX$ nXyXMXpXq $ 8 $ nXw nXvX$ yXnXq aXq nXyX$ $ $ $ $ bX$ bXq pXMXnXnXnXMXL.q pXpXpXpXq yX0 $ yX0 bX8 bXyXpXpXq 0 bXvXnXnX",
"nXnXnX0 nXpXL.L.pXyXbX8 vXw nXvX0 yXyXnXMXpXnX$ $ $ $ $ bX$ 0 vXq pXL.pXMXnXvXnXpXpXpXpXpXMXnX$ $ $ $ $ $ $ yXMXpXnXyX$ bXvXnXnX",
"q q nXvXnXL.pXpXnX$ $ $ q nXnX0 $ yXyXvXnXnX$ $ $ 0 $ 0 $ $ yXnXpXL.pXnXpXMXnXpXL.pXpXpXnXnXyX$ $ 8 $ 0 0 $ q pXpXnX$ $ vX0 nXnX"
};
