/* XPM */
static char *_6a64178968147a5998937934c72e1d5[] = {
/* columns rows colors chars-per-pixel */
"64 64 256 2 ",
"   c black",
".  c #0000A8",
"X  c #00A800",
"o  c #00A8A8",
"O  c #A80000",
"+  c #A800A8",
"@  c #A85400",
"#  c #4C4436",
"$  c gray33",
"%  c #5454FC",
"&  c #524A42",
"*  c #5E5246",
"=  c #736352",
"-  c #685D4C",
";  c #FCFC54",
":  c gray99",
">  c #ECECEC",
",  c gainsboro",
"<  c #D0D0D0",
"1  c #C0C0C0",
"2  c #B4B4B4",
"3  c gray66",
"4  c #989898",
"5  c gray55",
"6  c #7C7C7C",
"7  c gray44",
"8  c #646464",
"9  c gray33",
"0  c #484848",
"q  c gray22",
"w  c #2C2C2C",
"e  c #202020",
"r  c #FC0000",
"t  c #EC0000",
"y  c #E00000",
"u  c #D40000",
"i  c #C80000",
"p  c #BC0000",
"a  c #B00000",
"s  c #A40000",
"d  c #980000",
"f  c #880000",
"g  c #7C0000",
"h  c #700000",
"j  c #640000",
"k  c #580000",
"l  c #4C0000",
"z  c #400000",
"x  c #FCD8D8",
"c  c #FCB8B8",
"v  c #FC9C9C",
"b  c #FC7C7C",
"n  c #FC5C5C",
"m  c #FC4040",
"M  c #FC2020",
"N  c #FC0000",
"B  c #FCA85C",
"V  c #FC9840",
"C  c #FC8820",
"Z  c #FC7800",
"A  c #E46C00",
"S  c #CC6000",
"D  c #B45400",
"F  c #9C4C00",
"G  c #FCFCD8",
"H  c #FCFCB8",
"J  c #FCFC9C",
"K  c #FCFC7C",
"L  c #FCF85C",
"P  c #FCF440",
"I  c #FCF420",
"U  c #FCF400",
"Y  c #E4D800",
"T  c #CCC400",
"R  c #B4AC00",
"E  c #9C9C00",
"W  c #848400",
"Q  c #706C00",
"!  c #585400",
"~  c #404000",
"^  c #849C7B",
"/  c #738C6B",
"(  c #6B7B63",
")  c #637352",
"_  c #5A6B52",
"`  c #525A4A",
"'  c #4A5242",
"]  c #425239",
"[  c #394A39",
"{  c #313931",
"}  c #313929",
"|  c #293129",
" . c #293121",
".. c #212921",
"X. c #182118",
"o. c #181818",
"O. c #00FC00",
"+. c #00EC00",
"@. c #00E000",
"#. c #00D400",
"$. c #04C800",
"%. c #04BC00",
"&. c #04B000",
"*. c #04A400",
"=. c #049800",
"-. c #048800",
";. c #047C00",
":. c #047000",
">. c #046400",
",. c #045800",
"<. c #044C00",
"1. c #044000",
"2. c #C8BFB2",
"3. c #A89A85",
"4. c #9A8C77",
"5. c #7CFCF8",
"6. c #5CFCFC",
"7. c #40FCFC",
"8. c #20FCFC",
"9. c #00FCFC",
"0. c #00E4E4",
"q. c #00CCCC",
"w. c #00B4B4",
"e. c #009C9C",
"r. c #008484",
"t. c #007070",
"y. c #005858",
"u. c #004040",
"i. c #94846B",
"p. c #8C7B67",
"a. c #847B63",
"s. c #81735D",
"d. c #7B6B5A",
"f. c #007CCC",
"g. c #006CB4",
"h. c #005C9C",
"j. c #736B5A",
"k. c #736B52",
"l. c #9C9CFC",
"z. c #7C80FC",
"x. c #5C60FC",
"c. c #4040FC",
"v. c #2024FC",
"b. c #0004FC",
"n. c #0000FC",
"m. c #0000EC",
"M. c #0000E0",
"N. c #0000D4",
"B. c #0000C8",
"V. c #0000BC",
"C. c #0000B0",
"Z. c #0000A4",
"A. c #000098",
"S. c #000088",
"D. c #00007C",
"F. c #000070",
"G. c #000064",
"H. c #000058",
"J. c #00004C",
"K. c #000040",
"L. c #282828",
"P. c #FCE034",
"I. c #FCD424",
"U. c #FCCC18",
"Y. c #FCC008",
"T. c #FCB400",
"R. c #B420FC",
"E. c #A800FC",
"W. c #9800E4",
"Q. c #8000CC",
"!. c #7400B4",
"~. c #60009C",
"^. c #500084",
"/. c #440070",
"(. c #340058",
"). c #280040",
"_. c #FCD8FC",
"`. c #FCB8FC",
"'. c #FC9CFC",
"]. c #FC7CFC",
"[. c #FC5CFC",
"{. c #FC40FC",
"}. c #FC20FC",
"|. c #FC00FC",
" X c #E000E4",
".X c #C800CC",
"XX c #B400B4",
"oX c #9C009C",
"OX c #840084",
"+X c #6C0070",
"@X c #580058",
"#X c #400040",
"$X c #FCE8DC",
"%X c #FCE0D0",
"&X c #FCD8C4",
"*X c #FCD4BC",
"=X c #FCCCB0",
"-X c #FCC4A4",
";X c #FCBC9C",
":X c #FCB890",
">X c #FCB080",
",X c #FCA470",
"<X c #FC9C60",
"1X c #F0945C",
"2X c #E88C58",
"3X c #DC8854",
"4X c #D08050",
"5X c #C87C4C",
"6X c #BC7848",
"7X c #B47044",
"8X c #A86840",
"9X c #A0643C",
"0X c #9C6038",
"qX c #905C34",
"wX c #885830",
"eX c #80502C",
"rX c #744C28",
"tX c #6C4824",
"yX c #5C4020",
"uX c #543C1C",
"iX c #483818",
"pX c #403018",
"aX c #382C14",
"sX c #28200C",
"dX c #600064",
"fX c #006464",
"gX c #006060",
"hX c #00001C",
"jX c #00002C",
"kX c #302410",
"lX c #480048",
"zX c #500050",
"xX c #000034",
"cX c gray11",
"vX c #4C4C4C",
"bX c gray36",
"nX c gray25",
"mX c gray19",
"MX c #343434",
"NX c #2E2B22",
"BX c #B8E8E8",
"VX c #9CDCDC",
"CX c #74C8C8",
"ZX c #48C0C0",
"AX c #20B4B4",
"SX c #20B0B0",
"DX c #00A4A4",
"FX c #009898",
"GX c #008C8C",
"HX c #008484",
"JX c #007C7C",
"KX c #007878",
"LX c #007474",
"PX c #007070",
"IX c #006C6C",
"UX c #980088",
/* pixels */
"  sXsXsXsXsXsXsXsXsXsXsXsXkXkXsXsXkXo.sXL.kXkXkXsXkXkXsXsXsX    sXsXsXsXsXkXsXkXkXsXkXkXkXsXsXsXsX    sXsXsXsXkXL.L.sXsXsXsX    ",
"  sXo.o.aXaXpX} aXaXL.L.kXpXiXpX} } } iXiX} iXpX} } } } o.sX    sXsXe kX} } iXiX} uXiX# } } kXo.sX    sXsXe L.} pX} } aXL.o.sX  ",
"  sX} } } pXpX} aXkX} L.o.} } } } } } iX# # iX# & # # # } kXsX  sXkX} } # } pXiXpXyX# & # iXpX} sXsX  o.kX} } } } uXq } } pXsXsX",
"  sX# & # } } aXaXkXkXL.L.iX} L.iXpXiXpXiXiXuX* # & # & # q sX  sXaX} } } aXaX} uXuX# # # } } } sXsX  kX} iX} q q uX# q } } kXsX",
"  sX# & q kXL.kXkXL.kXkXL.iXL.L.iXiXiXpXpX} yX* iX* * * * * sX    L.} iX} } } } tXiX# # & } } aXsXsX  kXiX# } } iXiX} # # # sXsX",
"  sX# # pXL.L.aXaXkXkXkXL.pXkX} } } pXpXaXpX} } iX} } yX* * sX  sX} q # # # # # iXiX} # q q q } sXsX  } } q iXpX} } } } } q sX  ",
"  o.# # L.aXaXaXpXaXL.o.o.aX} } } } } pXaX} iX} } pXiX} # * sX  sX} } } } } } } } } } iXpXq # } sXsXo.} } # iXaX} L.} } pX# sXsX",
"  } # # pXL.L.pXpXkXo.kXaX} pXiX} } } } L.iXpXpXaXL.L.uX& & sX    q } } iX} } } } } } L.} } } } sXsXo.} } # } L.kX} } } } } kXsX",
"  aX} kXaXL.L.kXaXkXe o.o.} } L.} iXpX} L.L.pXpXL.L.L.pXiX} sX  sXo.# # iX} } } } iXpX} } pXiX} sXsXsXaXpXpXL.} } } } iXiX} sX  ",
"  sXaXaXkXkXe e kXo.o.o.o.aXaXaXaXpXaXkXpX} iXpX} aXpXaX} } sX  sXsXkXkXiX} L.pX} pX} pX} iXaX} sXsX  sXkXkXaXL.aXpXaXaXpXL.sXsX",
"  sXL.L.kXsXkXo.sXkXkXo.o.L.aXpXpXaX} aX} } pXpX} pXpXL.aX} sX    sXo.kXL.} aXiX} iX} } } L.L.aXsXsX  sXsXo.o.o.o.o.o.o.o.L.sXsX",
"  sXL.L.o.o.o.o.sXsXsXo.o.L.kXkXkXkXpXpXaXpXpXpXpXaXkXL.pXaXsX  sXkXo.sXL.} iXiXaXpXpXaXiXL.L.kXsX    sXsXo.o.o.o.o.o.o.sXe sXsX",
"  sXe e o.o.o.sX    sXo.o.o.o.L.o.o.kXkXkXkXkXkXkXL.o.L.aXkXsX    kXaXkXo.} } } aX} aX} iXL.kXkXsX    sXsXsXsXsXo.o.sXo.o.o.sXsX",
"  sXsXsXo.sXsX    sXsXsXsXsXo.o.o.sXsXo.e o.o.sXsXe e sXsXsX      sXL.L.o.aXiXpXL.L.aXsXkXpXiXkX        sXsXsXsXsXsXsXsXsXsX    ",
"          sXsXsX    sXsXsX  sXsXsXsXsX  sXsXsX  sXsX  sXsX        sXsXsXo.o.kXL.aXaX} L.pX} } } sX                              ",
"                                                                        sXo.o.o.o.o.o.aXpXL.kXaXsX                              ",
"sXsXsXsXsX          sXsXsXsXsXsXsX        sXsXsXsXsXsXsXsXsXsX              sXsXsXsXe } } aXaXL.sXsX      sX      o.  sXsXsXsX  ",
"kXkXkXsXsX        sXsXsXo.o.sXsXsXsXsXsXsXsXaXpXpXkXkXaXpXkXkXsX                sXsXL.L.L.aXkXL.sX      sXo.kXsXo...o.aX} pXsXsX",
"} uXiXpXkXsX    sXsXkX} q aXpXpXaXkXsXsXo.L.# yXyXpXq # & # q L.sXkXkXsXo.o.        sXsXo.o.sXsX      sXkX} # yXe ..o.} q iXL.sX",
"} # # # pXsX    kXkX} # # uXq q } kXsXsXaX} } q # kXpX# } } } } sX# # kX} pXaXo.sX                    o.aXiXq q } o.kXkXiXL...o.",
"L.} } } pXsXsX  o.L.} iXpXiXiXpX} kXo.sXpXpXaX} pXkXiX} iX} pX} o.# # L.} } iXL.o.sX    o.o.o.kX      kXpXq } } ..sXiXkXpX} } aX",
"sXpXkXL.kXsXsX  kXaXaXkXL.} & # } L.o.sXL.} pXL.kXkXpX# # # } L.o.# iXkX# & tX} aXsX    sXq q q sX    kX} & } L.sXo.kXaXiXL.kXo.",
"o.o.kXaXL.      o.L.} L.L.} # # q L.o.sX} L.} } L.L.# } } } L.aX} } } ..L.} q iXo.o.  sXkX# # kXsXsX  kX} & } } pXaXo.} } L.o.sX",
"o.kXkXaXL.sX    o.L.} L.L.} q # } o.o.sX} } } aXpX} # } } } } pX} } } L.aX} } uXkXkX  sXkX# # kXsXsX  aX} # } } kXkXo.} } L.kXsX",
"o.aXaXkXkXsXsX  sXkX} } L.kX} } kXe o.sXiXpX} aXpX} yXpXkXL.kXkXkXpXpXo.aXpX} } aXkX  sXo.# q kXo.sX  kXiX} } } o.o.L.pXuXe kXsX",
"o.o.kXaXL.sXsX  kXpX} } L.L.L.L.L.kXo.sXkX} } } } } iXpXe e kXkXkX} pXsXaXpXaXaX} kX  sXo.} iXkXsXsX  sXaXaXL.L.kXkXaXiXuX} kXkX",
"o.kXaXaXaXsXsX  kXaXL.aXaXL.} } aXaXkXsXaXaXaXpXpX} } pXaXL.} pXpXaXL.sXkXL.o.L.pXsX  sXo.} L.o.o.o.  o.o.o.L.L.L.kXo.kXpXuXpX} ",
"L.} L.e o.      o.kXaXaXaXe o.o.kXsXsXsXL.kXaXL.L.aXpX} } # } } pXL.e o.L.L.L.aXkXsX  sXo.L.L.kXsXsX  o.L.L.o.e e o.o.o.L.L.L.L.",
"e o.o.o.o.      sXsXL.o.o.o.o.o.sXsXsXsXaXe o.o.e o.o.L.aXo.e o.L.e o.kXL.L.L.e sXsX    sXL.e sXsX    sXsXsXo.sXsXo.o.o.o.o.o.L.",
"o.o.sXsXsX      sXsXsXo.o.sXsXsXsXsXsXsXsXsXo.o.sXsXsXo.o.o.sXsXsXsXsXsXsXsXsXsX        sXsXsXsX      sXsXsXsXsXsXsXsXo.o.sXsXo.",
"sXsXsXsXsX      sXsXsXsXsXsXsXsXsXsX  sXsXsXsXo.sXsXsXo.o.o.sXsXsXsXsXsXsXsXsXsX          sXsX        sXsXsXsXsXsXsXsXsXsXsXsXsX",
"                                                                                                                                ",
"                        o.  sXsXsXsXsX      sX                                                                                  ",
"kXkXkXkXkXo.sX    o.sXkX} } } } aXpXaXkXo.o.o.o.o.o.o.o.sXkXkX} } L.} iXsXsXsX      sXsXsXkXsXo.kXo.o.} } sXo.o.        o.o.kXkX",
"# # # q pXaXkX  sXo.sX} # q pXpXaXq # pX} # # # # } aX# # # # # pX} pX# L.o.sX      kXuXuX# q } } kXkXq # } L.L.sXsX  kX} } q } ",
"# # } } } pXaXo.    e } q } } L.pX} } aXpXiX# } } } } q } & pX} # } # q aXL.L.sX    } pXpXpXkXkX} } aX} } q # # sX    o.L.} } q ",
"# q } } } pXaXsX    kX} } } } L.pX} } aXaXpXq } } } } } } # iX} # } # q pXL.L.sX    } pXpXaXkXkXq } aX} pX} & # sX    o.L.} } q ",
"} } pXaXL.} } sX    kXiX} } } kXaXkXL.L.L.} } q } } # } L.} q } pX} } q pXo.kXsX    kXaXaXL.L.kX} } kXpXaX} # # sXsX  sXkX} } L.",
"pXpXaXaXaXpXpXo.    sXL.} } } aXaXaXaXkXkX} } } } aXaXkXkXkXkX} pX} pX} aX} L.      kXkXaXpXaXaXpXpXpX} kXkX} } sXsX  sXaXpX} } ",
"aXpXaXaXpXaXkXsX    sX} } iXkXkXL.L.L.kXkX} aXaXkXkXaX} o.o.L.} kX} pXaXkX} aXsX    kXpXkXaXkXkXL.} } L.e kXaXkXsXsX  sXkX} } L.",
"L.} iXaXkXL.L.kX    sXkXL.pXkXkXL.kXaXL.L.L.kXkXsXo.kX} o.o.aX} L.L.pXkXkXL.aXsX    kXpXkXkXkXkXiXiX} o.o.aXkXkXo.sX  sXkXkXL.L.",
"L.L.L.L.L.aXkXsX    sXkXaXaXkXL.L.L.kXkXL.L.kXkXo.o.L.L.sXsXsXkXaXaXL.L.L.aXkX      o.o.e aXkXkXpXpXkXe L.L.L.L.o.sX  sXsXo.o.sX",
"L.L.L.L.L.aXkXsX      kXaXkXkXL.L.L.L.aXL.L.kXkXo.kXL.L.sXsXsXkXaXaXL.L.L.aXkX      o.o.o.aXkXkXpXaXkXL.L.L.L.L.o.sX  sXsXo.o.sX",
"aX} L.kXkXL.L.sX    sXe L.kXkXL.aXaXaXaXaXaXkXL.o.o.o.sXsXsXsXsXL.L.e e o.L.o.      o.sXsXsXsXsXaXkXiX} kXaXkXo.sXsX  sXo.} } } ",
"q iXiXuX} L.kXsX    sXo.o.o.o.e kXkXe e e e L.L.o.o.o.o.o.o.o.o.o.o.    sXo.o.sX    sXo.o.o.o.o.o.o.o.e o.o.o.o.      sXkXaX} q ",
"pXiXpXaXaXaXkXsX    sXsXsXsXsXsXsXo.o.sXsXo.o.o.o.o.sXsXo.sXsXsXsX        sXsXsX    sXsXsXsXsXsXsXo.o.o.o.o.o.o.      sXaXkX} } ",
"} pXaXaXpXL.L.sX          sXsXsXsXsXsXsX  sXsXsXsXsXsXsXsXsX          sXsX                  sXsXsXsXsXsXsXsXsX        o.L.aXL.L.",
"} aXpX} q pXkX                                                                                                        o.L.kX} q ",
"} aX} } # pXkX                                                      sXsXsXsXsXsXsXsXsXsXsXsXsXsXsX    sXsXsXsXsX      o.L.aXq & ",
"uXL.} q } kXe sX      sXsXsXL.o.sXsXsX      sXsXsXsXsXsX          sXsXsXsXsXsXsXsXsXsXsXsXsXsXsXsXsXsXsXsXsXsXsX      o.L.aXq & ",
"e o.} } L.o.o.sX    sX} } aXq q aXsXsX    sXaXpXpXL.L.aXsXsX      sXL.aXpX} } L.L.aXkXL.L.pXpXaXpXpXpX} } pXkXkXsX    o.L.kXL.L.",
"o.e e o.o.o.sX      sXaXpX} q # } sXsX  sXo.} # q & & # kXsX    sXkXpX} # iX} q # } iX& # q } q # # q pX} # pXaXsXsX  sXo.o.o.o.",
"sXsXsXsX            sX} } # pXpXq kXsX  sXaX} } # # q # } kX      kX} q q q q q q q q q q } } } # q } pX} q } } sX      sXsXsXsX",
"                    sXpX} q pXaX} } kX  sXkXpXpXpX} aXpXq } sX  sXkXpX} aXpXiXL.pXaXaX} } q } } } } L.kXkXaX} } sXsX            ",
"                    sXL.aX} aXkXpX} o.  sXL.L.kXaX} pXpX} }       o.kXaXkXL.pX} kXL.iXiXkX} } aXL.e e } } L.aXkXsX              ",
"sXsXsXsXsX          sXL.L.} L.o.pXkXo.  sXL.L.L.pX} } pX} L.      o.L.aXo.L.L.} L.L.uXpXkXL.L.aXL.e o.} } L.aXaXsX          sXsX",
"q } } iXpXo.o.      sXaXaXaXpX} aXsXsX  sXaXaXaXkXaXL.aXL.L.sX  sXe L.L.aXL.} e L.} } o.o.  o.} L.L.L.L.L.pXL.L.o.sX    sXkXiXuX",
"q # L.L.} } kXsX    o.L.L.kXaXaXaXsXsX  sXkXL.L.L.L.L.} aXL.    sXe L.aXL.e o.  o.      o.} } L.L.} q L.L.kXL.L.        o.L.} q ",
"L.} L.L.pX} } o.    o.} } L.L.L.L.sXsX  sXkXkXaXkXkXpXaXkXL.sX    e } L.o.  sX} # q } } } kX} } q } L.L.L.L.L.L.        e } L.L.",
"kXkX} } kXL.L.sX    sXkXkXaXkXkXkXsXsX  sXkXkXL.e L.aXkXL.L.sX  sXkXL.o.  sXo.} e o.o.kXaXaXpX} } pXaXaXkXo.o.e         o.L.L.L.",
"kXaXL.L.L.L.o.sX      o.o.e kXkXo.sX    sXkXo.o.o.o.o.kXkXL.      sX    o.pXiXkXo.o.kXkXL.kXkXkXL.kXaXL.e     sX      sXo.L.aXaX",
"L.aXL.L.L.L.o.sX      e e o.aXkXsX      sXkXo.o.o.sXsXo.sXL.            L.yXiXkXL.kXL.L.L.L.L.aXL.kXkXL.e             sXo.L.pXpX",
"L.L.L.L.o.sXsX        sXsXsXsXsXsX        sXsXo.sXsXsXsXsXsXsX      sXsXo.kXkXsXo.o.o.sXo.sXsXkXsXsXkXL.e sXsXsX      sXe sXsXo.",
"sX  sXsX                  sXsXsXsX          sX  sXsX  sX              sXsXsXsXsXsXsXsXsXsXsXsXsX      sXsXsX              sXsXsX"
};
